<?xml version="1.0" encoding="UTF-8"?>
<svg width="759" height="1139" clip-rule="evenodd" fill-rule="evenodd" image-rendering="optimizeQuality" shape-rendering="geometricPrecision" text-rendering="geometricPrecision" xmlns="http://www.w3.org/2000/svg">
 <g fill="#e0e0e0">
  <path d="m286 146h-10v4c-1-1.4-1.3-3-1-5 3.9-0.3 7.5 0 11 1z"/>
  <path d="m290 144h11v6h-11v-6z"/>
  <path d="m234 150h-5v-5h5v5z"/>
  <path d="m264 144v5h-5v-5h5z"/>
  <path d="m286 146v5c-3.5 0.3-6.9 0-10-1v-4h10z"/>
  <path d="m292 146h9v4h-9v-4z"/>
  <path d="m254 150h-5v5c-1-1.4-1.3-3-1-5h-5v-6h6v5c2-0.3 3.6 0 5 1z"/>
  <path d="m244 146h4v4h-4v-4z"/>
  <path d="m254 150v5h-5v-5h5z"/>
  <path d="m306 156v-6h5v6h-5z"/>
  <path d="m348 150v5h-5v-6c2-0.3 3.6 0 5 1z"/>
  <path d="m368 160h-5v-11h5v11z"/>
  <path d="m380 150h10v6h-11a12 12 0 0 1 1-6z"/>
  <path d="m322 160v-5h-5c1.4-1 3-1.3 5-1v-5h6v6h-5c0.3 2 0 3.6-1 5z"/>
  <path d="m322 150h4v4h-4v-4z"/>
  <path d="m264 144c1 1.4 1.3 3 1 5 1.6-0.3 3 0 4 1s1.3 2.4 1 4c2-0.3 3.6 0 5 1h-5v5c-1-1.4-1.3-3-1-5h-5v-5c-2 0.3-3.6 0-5-1h5v-5z"/>
  <path d="m270 150v4h-4v-4h4z"/>
  <path d="m452 156c3.5-1 7.1-1.3 11-1 0.3 2.2 0 4.2-1 6v-5h-10z"/>
  <path d="m224 156h5v10h-5v-10z"/>
  <path d="m276 156v5h-5v-5h5z"/>
  <path d="m290 160h-5v-5h5v5z"/>
  <path d="m306 156v5h-5v-5h5z"/>
  <path d="m316 156h5v5h-5v-5z"/>
  <path d="m332 160v-5h5v5h-5zm62 0v-5h5v5h-5z"/>
  <path d="m430 156h6v5h-6v-5z"/>
  <path d="m452 156h10v5h-10v-5z"/>
  <path d="m224 156h-5v20c-1-3.1-1.3-6.5-1-10v-10h-4v10c-1-3.5-1.3-7.1-1-11h5c-0.3-1.6 0-3 1-4 1.4-1 3-1.3 5-1v6z"/>
  <path d="m218 166h-4v-10h4v10z"/>
  <path d="m218 150h4v4h-4v-4z"/>
  <path d="m254 156h5v10h-5v-10z"/>
  <path d="m348 150c1 1 1.3 2.4 1 4h5v16c-1-1.4-1.3-3-1-5v-10h-4v10c-1-3.1-1.3-6.5-1-10v-5z"/>
  <path d="m352 166h-4v-10h4v10z"/>
  <path d="m228 150h5c2-0.3 3.6 0 5 1 1 1 1.3 2.4 1 4h5c0.3 3.9 0 7.5-1 11v-10h-4v10c0.3 2 0 3.6-1 5v-15h-5v-5c-2 0.3-3.6 0-5-1z"/>
  <path d="m244 166h-4v-10h4v10z"/>
  <path d="m238 150v4h-4v-4h4z"/>
  <path d="m276 160h5v5-5h-5z"/>
  <path d="m290 160h6v5h-6v-5z"/>
  <path d="m328 160h5v5h-5v-5z"/>
  <path d="m368 160h10v5h-10v-5z"/>
  <path d="m406 160h10v5h-10v-5z"/>
  <path d="m520 160h5v5h-5v-5z"/>
  <path d="m202 166h-5v-5h5v5z"/>
  <path d="m316 160v5h-5v-5h5z"/>
  <path d="m394 160h5v-5h-5v5z"/>
  <path d="m446 166h-5v-5h5v5z"/>
  <path d="m468 160h5v5h-5v-5z"/>
  <path d="m530 160h5v5h-5v-5z"/>
  <path d="m202 166h5v10h-5v-10z"/>
  <path d="m218 166h5v10h-5v-10zm20 0v5h-5v-5h5z"/>
  <path d="m254 166v5h-5v-5h5z"/>
  <path d="m270 170h-5v-5h6c0.3 2 0 3.6-1 5z"/>
  <path d="m280 166h5v11h-5v-11z"/>
  <path d="m312 166v5h-5v-5h5zm31 10h-5v-10h5v10z"/>
  <path d="m354 166h10v5h-10v-5z"/>
  <path d="m378 160c1 1.4 1.3 3 1 5h5v5h-5c-1-1.4-1.3-3-1-5v-5z"/>
  <path d="m406 160v5a48 48 0 0 1-0.5 10 9 9 0 0 1-5.5 1v-11h5c-0.3-2 0-3.6 1-5z"/>
  <path d="m416 166h10v5h-10v-5z"/>
  <path d="m446 166h5v11h-5v-11z"/>
  <path d="m482 170h-5v-5h5v5zm16 0h-5v-5h5v5z"/>
  <path d="m508 166h6v5h-6v-5z"/>
  <path d="m328 160v16h-6c-0.3-3.9 0-7.5 1-11v10h4v-10c-0.3-2 0-3.6 1-5z"/>
  <path d="m322 166h4v10h-4v-10z"/>
  <path d="m234 170v5h-5v-5h5z"/>
  <path d="m264 170v5c-1.4 1-3 1.3-5 1h-5c1.4-1 3-1.3 5-1v-5h5z"/>
  <path d="m364 170h5v6h-5v-6z"/>
  <path d="m384 170h5v5h-5v-5z"/>
  <path d="m498 170h5v6h-5v-6zm26 0h5v6h-5v-6z"/>
  <path d="m264 170h5c-1 1-2.4 1.3-4 1 0.3 1.6 0 3-1 4v-5z"/>
  <path d="m296 176c-1-1.4-1.3-3-1-5h6v6c-2 0.3-3.6 0-5-1z"/>
  <path d="m296 176v-4h4v4h-4z"/>
  <path d="m380 170h5v5c-1-1-1.3-2.4-1-4-1.6 0.3-3 0-4-1z"/>
  <path d="m462 170h6v11h-6v-11z"/>
  <path d="m462 172h4v9h-4v-9z"/>
  <path d="m482 170h6-6z"/>
  <path d="m488 176h-4v-4h4v4z"/>
  <path d="m540 170h6v6h-6v-6z"/>
  <path d="m540 172h4v4h-4v-4z"/>
  <path d="m250 170v6h-5c0.3 3.5 0 6.9-1 10v-10h-4v10c0.3 2.2 0 4.2-1 6v-17h5v-5h6z"/>
  <path d="m244 172h4v4h-4v-4z"/>
  <path d="m338 176h16v6h-11v-5c-2 0.3-3.6 0-5-1z"/>
  <path d="m416 170h21v5h5v6h-6v-5h-10v-5c-3.5 0.3-6.9 0-10-1z"/>
  <path d="m426 172h9v4h-9v-4z"/>
  <path d="m228 176v10h-5v-10h5z"/>
  <path d="m244 186h-4v-10h4v10z"/>
  <path d="m254 176h5v10h-5v-10z"/>
  <path d="m312 176h5v6h-5v-6z"/>
  <path d="m344 176h9v4h-9v-4z"/>
  <path d="m384 176h10v6h-5v-5c-2 0.3-3.6 0-5-1z"/>
  <path d="m436 176h4v4h-4v-4z"/>
  <path d="m472 176h5v6h-5v-6z"/>
  <path d="m202 176h5c2-0.3 3.6 0 5 1 1 3.1 1.3 6.5 1 10h-6v-10c-2 0.3-3.6 0-5-1z"/>
  <path d="m212 176v9h-4v-9h4z"/>
  <path d="m218 176h15c-1.4 1-3 1.3-5 1h-5v10h-5c1-1 2.4-1.3 4-1v-9c-1.6 0.3-3 0-4-1z"/>
  <path d="m378 176c1 1.4 1.3 3 1 5h-6v-6c2-0.3 3.6 0 5 1z"/>
  <path d="m378 176v4h-4v-4h4z"/>
  <path d="m410 176c1.4-1 3-1.3 5-1v6h-6c-0.3-2 0-3.6 1-5z"/>
  <path d="m410 176h4v4h-4v-4z"/>
  <path d="m514 176c1.4-1 3-1.3 5-1v6h-6c-0.3-2 0-3.6 1-5z"/>
  <path d="m514 176h4v4h-4v-4z"/>
  <path d="m452 182h5v5h-5v-5z"/>
  <path d="m504 186v-5h5v5h-5zm26-5h5v5h-5v-5z"/>
  <path d="m488 182c1.4-1 3-1.3 5-1v6h-6c-0.3-2 0-3.6 1-5z"/>
  <path d="m488 182h4v4h-4v-4z"/>
  <path d="m198 186h5v6h-5v-6z"/>
  <path d="m238 186v6h-5v-6h5z"/>
  <path d="m254 186v11h-5v-11h5z"/>
  <path d="m478 186h5v6h-5v-6z"/>
  <path d="m520 186h5v6h-5v-6z"/>
  <path d="m504 186v6h-5v-6h5z"/>
  <path d="m218 186v5h4v-5h1v6h-6c-0.3-2.2 0-4.2 1-6z"/>
  <path d="m218 186h4v5h-4v-5z"/>
  <path d="m540 186v5h4v-5c1 1.8 1.3 3.8 1 6h-6c-0.3-2.2 0-4.2 1-6z"/>
  <path d="m540 186h4v5h-4v-5z"/>
  <path d="m212 192v10h-5v-10h5z"/>
  <path d="m224 192h5v10h-5v-10z"/>
  <path d="m244 198v5h-5v-5h5z"/>
  <path d="m534 208h-5v-10h5v10z"/>
  <path d="m546 198h5v5h-5v-5z"/>
  <path d="m254 198h5v5-5h-5z"/>
  <path d="m208 208h-10v-6h5v5c2-0.3 3.6 0 5 1z"/>
  <path d="m228 202h5v5h-5v-5zm31 0h5v5h-5v-5z"/>
  <path d="m244 198c1 1.4 1.3 3 1 5h5v5h-1v-4h-4v4c-1-1.4-1.3-3-1-5v-5z"/>
  <path d="m248 208h-4v-4h4v4z"/>
  <path d="m202 208h5v4h-5v-4z"/>
  <path d="m224 208v4h-5v-4h5z"/>
  <path d="m234 208h5v4h-5v-4z"/>
  <path d="m250 208h5v5-5h-5z"/>
  <path d="m530 208v10h-5v-10h5z"/>
  <path d="m212 192c1 3.1 1.3 6.5 1 10v5h4v-5c1 1.4 1.3 3 1 5 2-0.3 3.6 0 5 1h-5v4h5c2-0.3 3.6 0 5 1h-11v-5h-5v-16z"/>
  <path d="m214 202h4v5h-4v-5z"/>
  <path d="m530 208h5c-1.4 1-3 1.3-5 1h-5v10c-1-3.5-1.3-7.1-1-11h6z"/>
  <path d="m228 208h11v5h5v16c-1-1.4-1.3-3-1-5v-10h-4v10c-1-3.1-1.3-6.5-1-10-2 0.3-3.6 0-5-1h5v-4h-5c-2 0.3-3.6 0-5-1z"/>
  <path d="m244 208h5v5h5c2-0.3 3.6 0 5 1h-11v-5c-1.6 0.3-3 0-4-1z"/>
  <path d="m192 228v-5a48 48 0 0 1 0.5-10 9 9 0 0 1 5.5-1v11h-5c0.3 2 0 3.6-1 5z"/>
  <path d="m212 214v10h-4v-10h4z"/>
  <path d="m224 214h5v10h-5v-10z"/>
  <path d="m244 224h-4v-10h4v10z"/>
  <path d="m254 214h5v10h-5v-10z"/>
  <path d="m202 212h5c2-0.3 3.6 0 5 1h-4v10c-1-3.1-1.3-6.5-1-10-2 0.3-3.6 0-5-1z"/>
  <path d="m534 218h6v5h-6v-5z"/>
  <path d="m218 224v5h-4v-5h4z"/>
  <path d="m244 224h5v5h-5v-5z"/>
  <path d="m352 224h6v5h-6v-5z"/>
  <path d="m546 224h5v5h-5v-5z"/>
  <path d="m192 224v5h-5v-5h5z"/>
  <path d="m228 224h5v5-5h-5zm109 0h5v5h-5v-5z"/>
  <path d="m368 224h5v5h-5v-5zm156 10h-5v-10h5v10z"/>
  <path d="m180 228v5h-5v-5h5z"/>
  <path d="m208 234h-10v-5h10v5z"/>
  <path d="m224 234h5v5c2-0.3 3.6 0 5 1h-5c-3.5 0.3-6.9 0-10-1v-9h4c-0.3 1.6 0 3 1 4z"/>
  <path d="m234 228h5v5h-5v-5z"/>
  <path d="m254 228h10v5h-10v-5z"/>
  <path d="m322 234c-1.4 1-3 1.3-5 1v-6h6c0.3 2 0 3.6-1 5z"/>
  <path d="m322 234h-4v-4h4v4z"/>
  <path d="m390 228h5v5h-5v-5z"/>
  <path d="m530 234v-5h5v5h-5z"/>
  <path d="m218 224c1 1.4 1.3 3 1 5h5v5c-1-1-1.3-2.4-1-4h-4v9c-1-3.1-1.3-6.5-1-10v-5z"/>
  <path d="m166 234h5v6h-5v-6z"/>
  <path d="m212 234v9h-4v-9h4z"/>
  <path d="m328 234h5v5-5h-5z"/>
  <path d="m524 234h5v6h-5v-6z"/>
  <path d="m180 228c1 1.4 1.3 3 1 5h5v11h-6v-10c-2 0.3-3.6 0-5-1h5v-5z"/>
  <path d="m182 234h4v9h-4v-9z"/>
  <path d="m208 234h5v1h-4v9h4v1h-5v-11z"/>
  <path d="m212 234c1 3.1 1.3 6.5 1 10h5v11c-1-1.4-1.3-3-1-5v-5h-4v5c-1-1.4-1.3-3-1-5v-11z"/>
  <path d="m250 244h-6v-11h6v11z"/>
  <path d="m244 234h4v9h-4v-9z"/>
  <path d="m348 238c-1.4 1-3 1.3-5 1v-6h6c0.3 2 0 3.6-1 5z"/>
  <path d="m348 238h-4v-4h4v4z"/>
  <path d="m410 238c-1-1.4-1.3-3-1-5h6v6c-2 0.3-3.6 0-5-1z"/>
  <path d="m410 238v-4h4v4h-4z"/>
  <path d="m540 234h6v6h-6v-6z"/>
  <path d="m540 234h4v4h-4v-4z"/>
  <path d="m328 234v5h5a9.6 9.6 0 0 1-6 1c-0.3-2.2 0-4.2 1-6z"/>
  <path d="m198 250h-5v-11h5v11z"/>
  <path d="m228 240h5v10h-5v-10z"/>
  <path d="m260 238h5v6h-5v-6z"/>
  <path d="m312 238h5v6h-5v-6z"/>
  <path d="m514 240h4v10h-5c-0.3-3.5 0-6.9 1-10z"/>
  <path d="m514 240c1.4-1 3-1.3 5-1v16c-1-1.4-1.3-3-1-5v-10h-4z"/>
  <path d="m354 240c1.4-1 3-1.3 5-1v6h-6c-0.3-2 0-3.6 1-5z"/>
  <path d="m354 240h4v4h-4v-4z"/>
  <path d="m380 240c1.4-1 3-1.3 5-1v6h-6c-0.3-2 0-3.6 1-5z"/>
  <path d="m380 240h4v4h-4v-4z"/>
  <path d="m176 250h-5v-5h5v5z"/>
  <path d="m218 250h-4v-5h4v5z"/>
  <path d="m250 244h5v5-5h-5zm52 0h5v5h-5v-5z"/>
  <path d="m530 250v-5h5v5h-5z"/>
  <path d="m160 254v-5h5v5h-5z"/>
  <path d="m176 250h6v10h-6v-10z"/>
  <path d="m218 250h10v5h-10v-5z"/>
  <path d="m238 254v-5h6v5h-6zm161-5h6v5h-6v-5z"/>
  <path d="m520 250h10v10h-5v-5h-5v-5z"/>
  <path d="m540 250h6v5h-6v-5z"/>
  <path d="m198 250h10v5h-10v-5z"/>
  <path d="m338 250h5v5h-5v-5zm-83 0h5v10h-5v-10z"/>
  <path d="m364 250h5v5h-5v-5z"/>
  <path d="m160 254v11a9 9 0 0 1-5.5-1c-0.5-3.3-0.7-6.6-0.5-10h6z"/>
  <path d="m186 254h6v5h-6v-5z"/>
  <path d="m208 254h6v5h-6v-5z"/>
  <path d="m238 254v5h-5v-5h5z"/>
  <path d="m322 254v5h4v-5c1 1.8 1.3 3.8 1 6h-6c-0.3-2.2 0-4.2 1-6z"/>
  <path d="m322 254h4v5h-4v-5z"/>
  <path d="m176 266h-10v-6h5v5c2-0.3 3.6 0 5 1z"/>
  <path d="m202 270h-5v-11h5v11z"/>
  <path d="m228 260v4h-10v-4h10z"/>
  <path d="m260 260h5v6h-5v-6z"/>
  <path d="m306 260h5v6h-5v-6zm88 0h5v6h-5v-6z"/>
  <path d="m530 260h5v11h-5v-11z"/>
  <path d="m354 264c-1-1.4-1.3-3-1-5h6v6c-2 0.3-3.6 0-5-1z"/>
  <path d="m354 264v-4h4v4h-4z"/>
  <path d="m430 264c-1.4 1-3 1.3-5 1v-6h6c0.3 2 0 3.6-1 5z"/>
  <path d="m430 264h-4v-4h4v4z"/>
  <path d="m530 270v1h-10v5c-1-1.4-1.3-3-1-5h-5v-11h6v10h10z"/>
  <path d="m514 260h4v9h-4v-9z"/>
  <path d="m546 264c-1-1.4-1.3-3-1-5h6v6c-2 0.3-3.6 0-5-1z"/>
  <path d="m546 264v-4h4v4h-4z"/>
  <path d="m228 260h-10v4h10c2-0.3 3.6 0 5 1h-15v4c2-0.3 3.6 0 5 1h-5v10c-1-3.1-1.3-6.5-1-10h-5v-6h5v-5c3.9-0.3 7.5 0 11 1z"/>
  <path d="m244 276v-10h-4v10c-1-3.5-1.3-7.1-1-11h5v-5h6v6h-5c0.3 3.5 0 6.9-1 10z"/>
  <path d="m244 260h4v4h-4v-4z"/>
  <path d="m170 266h5v4h-5v-4z"/>
  <path d="m214 266h4v4h-4v-4z"/>
  <path d="m228 266h5v5h-5v-5z"/>
  <path d="m244 276h-4v-10h4v10z"/>
  <path d="m150 266c1 1.4 1.3 3 1 5h-6v-6c2-0.3 3.6 0 5 1z"/>
  <path d="m150 266v4h-4v-4h4z"/>
  <path d="m176 266c1 1.4 1.3 3 1 5-2.2 0.3-4.2 0-6-1h5v-4z"/>
  <path d="m192 276v-5h-5v5c-1-1.4-1.3-3-1-5h-5c-0.3-2 0-3.6 1-5 1.4-1 3-1.3 5-1v5h6c0.3 2.2 0 4.2-1 6z"/>
  <path d="m182 266h4v4h-4v-4z"/>
  <path d="m348 266c1 1.4 1.3 3 1 5h-6v-6c2-0.3 3.6 0 5 1z"/>
  <path d="m348 266v4h-4v-4h4z"/>
  <path d="m160 270h5v5h-5v-5z"/>
  <path d="m192 276h-5v-5h5v5z"/>
  <path d="m202 270h5v10h-5v-10z"/>
  <path d="m224 270v10h-5v-10h5z"/>
  <path d="m260 276h-10v-5h10v5z"/>
  <path d="m302 270h5v5h-5v-5z"/>
  <path d="m530 270v5h-10v-5h10z"/>
  <path d="m156 280v5c-1-1.4-1.3-3-1-5h-5v-5h6v5z"/>
  <path d="m176 280v-5h6v5h-6z"/>
  <path d="m234 286h-5v-10h5v10z"/>
  <path d="m260 276h5v5h-5v-5z"/>
  <path d="m322 276h6v5h-6v-5z"/>
  <path d="m416 276h5v5h-5v-5z"/>
  <path d="m534 276h5v5h-5v-5z"/>
  <path d="m156 280h5v5h-5v-5z"/>
  <path d="m176 280v5h-5v-5h5z"/>
  <path d="m198 286h-11v-5h11v5z"/>
  <path d="m208 280h5v5h-5v-5z"/>
  <path d="m250 286h-6v-5h6v5zm103-5h6v5h-6v-5zm26 0h6v5h-6v-5zm135 0h6v5h-6v-5z"/>
  <path d="m530 290h-5v-10h5v10z"/>
  <path d="m550 280h5v5h-5v-5z"/>
  <path d="m170 286v11h-5v-11h5z"/>
  <path d="m198 286h5v10h-5v-10z"/>
  <path d="m234 286h5v5h-5v-5z"/>
  <path d="m250 286h10v5h-10v-5z"/>
  <path d="m186 286h11v10h5c3.5-0.3 6.9 0 10 1h-16v-10c-3.5 0.3-6.9 0-10-1z"/>
  <path d="m296 290c-1-1.4-1.3-3-1-5h6v6c-2 0.3-3.6 0-5-1z"/>
  <path d="m296 290v-4h4v4h-4z"/>
  <path d="m540 286h6v6h-6v-6z"/>
  <path d="m540 286h4v4h-4v-4z"/>
  <path d="m212 280c1 1.4 1.3 3 1 5h10v5c2-0.3 3.6 0 5 1h-5v10c-1-3.1-1.3-6.5-1-10h-10v-11z"/>
  <path d="m214 286h9v4h-9v-4z"/>
  <path d="m228 292v5h5v5h-10v-10h5z"/>
  <path d="m394 290h5v6h-5v-6z"/>
  <path d="m524 292v4h-5v-4h5zm5 0h5v10h-5v-10z"/>
  <path d="m160 296h-5v5c-1-1.4-1.3-3-1-5h-5v-6h6v5c2-0.3 3.6 0 5 1z"/>
  <path d="m150 292h4v4h-4v-4z"/>
  <path d="m322 290h6v6h-6v-6z"/>
  <path d="m322 292h4v4h-4v-4z"/>
  <path d="m192 306v-10h-5v10h-1v-10h-10v-6h11v5h6c0.3 3.9 0 7.5-1 11z"/>
  <path d="m176 292h9v4h-9v-4z"/>
  <path d="m348 292c1 1.4 1.3 3 1 5h-6v-6c2-0.3 3.6 0 5 1z"/>
  <path d="m348 292v4h-4v-4h4z"/>
  <path d="m524 290h5c2-0.3 3.6 0 5 1h-15v4h5c-1.4 1-3 1.3-5 1v15c-1-1.4-1.3-3-1-5v-10h-4c1-1 2.4-1.3 4-1v-5h6z"/>
  <path d="m160 296v5h-5v-5h5z"/>
  <path d="m192 306h-5v-10h5v10z"/>
  <path d="m202 296h10v5h-10v-5z"/>
  <path d="m238 286c1 1.4 1.3 3 1 5h5v5c2-0.3 3.6 0 5 1h-5v10c-1-3.1-1.3-6.5-1-10h-5v-5c-2 0.3-3.6 0-5-1h5v-5z"/>
  <path d="m240 292h4v4h-4v-4z"/>
  <path d="m250 296v10h-5v-10h5zm10 0h5v5h-5v-5z"/>
  <path d="m514 296h4v10h-5c-0.3-3.5 0-6.9 1-10z"/>
  <path d="m144 302h5v5h-5v-5z"/>
  <path d="m170 302h5v5h-5v-5z"/>
  <path d="m214 302h5v10h-5v-10z"/>
  <path d="m316 302h5v5h-5v-5z"/>
  <path d="m374 302h6v5h-6v-5z"/>
  <path d="m160 306h5v5h-5v-5z"/>
  <path d="m186 306h1v5h-6v-5h5z"/>
  <path d="m198 312v-5h5v5h-5z"/>
  <path d="m224 306h10v10h-5v-5h-5v-5z"/>
  <path d="m302 306h5v5h-5v-5z"/>
  <path d="m520 306h10v5h-10v-5z"/>
  <path d="m546 306h5v5h-5v-5z"/>
  <path d="m254 306h5v10h-5v-10zm-79 5v10h-5v-10h5z"/>
  <path d="m192 312h5v5h-5v-5z"/>
  <path d="m212 296c1 1.4 1.3 3 1 5v10c1 5-1 7-6 6h-5c1.4-1 3-1.3 5-1v-5h5v-15z"/>
  <path d="m358 312h5v5h-5v-5z"/>
  <path d="m530 312h5v10h-5v-10z"/>
  <path d="m238 312h6v11h-6v-11z"/>
  <path d="m240 312h4v9h-4v-9z"/>
  <path d="m192 312v5h5c-1.4 1-3 1.3-5 1v5h-6v10h-1v-10h-4c1-1 2.4-1.3 4-1v-5h6c-0.3-2 0-3.6 1-5z"/>
  <path d="m186 318h5v4h-5v-4z"/>
  <path d="m202 318h5v4h-5v-4z"/>
  <path d="m218 316h5v5-5h-5z"/>
  <path d="m150 312h6v5h5v6h-6v-5h-5v-6z"/>
  <path d="m156 318h4v4h-4v-4zm-5-5h4v4h-4v-4z"/>
  <path d="m176 312c1 3.5 1.3 7.1 1 11h-11c1.4-1 3-1.3 5-1h5v-10z"/>
  <path d="m218 316v5h5c3.5-0.3 6.9 0 10 1h-10v5c-1-1.4-1.3-3-1-5h-4v15c-1-1.4-1.3-3-1-5v-10h-4v10c-1-3.5-1.3-7.1-1-11h5c-0.3-2 0-3.6 1-5z"/>
  <path d="m534 312c1 3.5 1.3 7.1 1 11h-16v4h10v1h-11v-5h-5v-6h6v5h15v-10z"/>
  <path d="m514 318h4v4h-4v-4z"/>
  <path d="m166 322h5v5h-5v-5z"/>
  <path d="m182 322h4v10h-5c-0.3-3.5 0-6.9 1-10z"/>
  <path d="m202 322h5c-1.4 1-3 1.3-5 1v10h-5v-11h5z"/>
  <path d="m218 332h-4v-10h4v10z"/>
  <path d="m234 322v5h-10v-5h10z"/>
  <path d="m250 322h5v11h-5v-11z"/>
  <path d="m260 322h5v6h-5v-6z"/>
  <path d="m530 322v4h-10v-4h10z"/>
  <path d="m150 322c1 1.4 1.3 3 1 5h-6v-6c2-0.3 3.6 0 5 1z"/>
  <path d="m150 322v4h-4v-4h4z"/>
  <path d="m546 322c1.4-1 3-1.3 5-1v6h-6c-0.3-2 0-3.6 1-5z"/>
  <path d="m546 322h4v4h-4v-4z"/>
  <path d="m166 328v5h-5v-5h5zm68 0h5v10h-5v-10zm296 0h5v5h-5v-5z"/>
  <path d="m186 332h5v5h-5v-5z"/>
  <path d="m540 332h6v5h-6v-5z"/>
  <path d="m176 332v5h-5v-5h5z"/>
  <path d="m202 332h5v5-5h-5z"/>
  <path d="m218 332h5v5h-5v-5z"/>
  <path d="m520 332h5v10h-5v-10z"/>
  <path d="m150 332v10h4v-10c1 3.5 1.3 7.1 1 11h-6c-0.3-3.9 0-7.5 1-11z"/>
  <path d="m150 332h4v10h-4v-10z"/>
  <path d="m176 338h5c0.3 2 0 3.6-1 5h-4v-5z"/>
  <path d="m192 338h5v10h-5v-10z"/>
  <path d="m208 338h5v10h-5v-10z"/>
  <path d="m224 338h10v5h-5v6h-5v-11z"/>
  <path d="m250 342h-5c-1-1.4-1.3-3-1-5h6v5z"/>
  <path d="m260 338h5v5h-5v-5z"/>
  <path d="m530 348h-10c3.1-1 6.5-1.3 10-1v-10h5v11h-5z"/>
  <path d="m176 332c1 1.4 1.3 3 1 5v5h4c-1.4 1-3 1.3-5 1v-11z"/>
  <path d="m192 332c1 1.4 1.3 3 1 5v10h5c2-0.3 3.6 0 5 1h-11v-16z"/>
  <path d="m160 342h10v6h-10v-6z"/>
  <path d="m250 342h5v5-5h-5z"/>
  <path d="m550 342h5v6h-5v-6z"/>
  <path d="m244 342h5v5h5a9.6 9.6 0 0 1-6 1v-5c-1.6 0.3-3 0-4-1z"/>
  <path d="m212 338c1 3.1 1.3 6.5 1 10h5v16c-1-1.4-1.3-3-1-5v-10h-4v10c-1-3.1-1.3-6.5-1-10-2 0.3-3.6 0-5-1h5v-10z"/>
  <path d="m234 354v-6h11v6h-11z"/>
  <path d="m198 348h5v5h-5v-5z"/>
  <path d="m218 358h-4v-10h4v10z"/>
  <path d="m234 348h9v4h-9v-4z"/>
  <path d="m520 348h10v4h-10v-4z"/>
  <path d="m150 348c1 1.4 1.3 3 1 5h-6v-6c2-0.3 3.6 0 5 1z"/>
  <path d="m150 348v4h-4v-4h4z"/>
  <path d="m186 354v10h-1v-10h-5c-0.3-2 0-3.6 1-5 1.4-1 3-1.3 5-1v6z"/>
  <path d="m182 348h4v4h-4v-4z"/>
  <path d="m520 348v4h10c-3.5 1-7.1 1.3-11 1-0.3-2 0-3.6 1-5z"/>
  <path d="m156 354h5v5h-5v-5z"/>
  <path d="m170 358v-5h5v5h-5z"/>
  <path d="m186 354h6v10h-6v-10z"/>
  <path d="m202 354h5v10h-5v-10z"/>
  <path d="m234 354v5h-5v-5h5z"/>
  <path d="m254 354h5v5h-5v-5z"/>
  <path d="m534 358v-5h6v5h-6z"/>
  <path d="m218 358h10v10h-5v-5h-5v-5z"/>
  <path d="m514 358h6v5h-6v-5z"/>
  <path d="m534 358v10h-5v-5h-5v-5h10z"/>
  <path d="m170 358h5v-5h-5v5z"/>
  <path d="m186 364h1v5h-11v-5h10z"/>
  <path d="m202 364v5h-5v-5h5z"/>
  <path d="m238 374h-5v-10h5v10z"/>
  <path d="m250 364h5v5h-5v-5z"/>
  <path d="m166 370v5c-3.5 0.3-6.9 0-10-1v-4h10z"/>
  <path d="m192 368h5v5h-5v-5z"/>
  <path d="m260 368h5v6h-5v-6z"/>
  <path d="m524 380h-5v-11h5v11z"/>
  <path d="m550 368h5v6h-5v-6z"/>
  <path d="m156 354v15c3.5-0.3 6.9 0 10 1h-10v4c-1-1-1.3-2.4-1-4h-5c-0.3-3.9 0-7.5 1-11v10h4v-10c-0.3-2 0-3.6 1-5z"/>
  <path d="m150 358h4v10h-4v-10z"/>
  <path d="m224 374h-5v10c-1-3.1-1.3-6.5-1-10h-15c1.4-1 3-1.3 5-1v-5h11v5c2-0.3 3.6 0 5 1z"/>
  <path d="m208 370h9v4h-9v-4z"/>
  <path d="m202 374h5v4h-5v-4z"/>
  <path d="m224 374v10h-5v-10h5z"/>
  <path d="m234 374h5c-1.4 1-3 1.3-5 1v5h-5v-6h5z"/>
  <path d="m150 374c1 1.4 1.3 3 1 5h-6v-6c2-0.3 3.6 0 5 1z"/>
  <path d="m150 374v4h-4v-4h4z"/>
  <path d="m176 374c1 1.4 1.3 3 1 5h-11c1.4-1 3-1.3 5-1v-5c2-0.3 3.6 0 5 1z"/>
  <path d="m176 374v4h-4v-4h4z"/>
  <path d="m192 368v5h5c-1.4 1-3 1.3-5 1v5h-6v5h-5c0.3 2 0 3.6-1 5v-5c-0.3-2 0-3.6 1-5 1-1 2.4-1.3 4-1-0.3-1.6 0-3 1-4 1.4-1 3-1.3 5-1-0.3-2 0-3.6 1-5z"/>
  <path d="m186 374h5v4h-5v-4z"/>
  <path d="m244 374c1.4-1 3-1.3 5-1v6h-6c-0.3-2 0-3.6 1-5z"/>
  <path d="m244 374h4v4h-4v-4z"/>
  <path d="m166 380h5v5h-5v-5z"/>
  <path d="m182 380h4v4h-4v-4z"/>
  <path d="m202 378h5c-1.4 1-3 1.3-5 1v5h-5v-6h5z"/>
  <path d="m254 380h5v5h-5v-5z"/>
  <path d="m524 380h10v5h-10v-5z"/>
  <path d="m150 384h11v5h-11v-5z"/>
  <path d="m180 384v5h-5v-5h5z"/>
  <path d="m198 384v10h-5v-10h5z"/>
  <path d="m212 384v10h-5v-10h5z"/>
  <path d="m520 390v5c-1-1.4-1.3-3-1-5h-5v-5h6v5z"/>
  <path d="m540 384h6v5h-6v-5z"/>
  <path d="m224 384h10v10h-5v-5h-5v-5z"/>
  <path d="m140 390h5v5h-5v-5z"/>
  <path d="m176 390v5h-5v-5h5z"/>
  <path d="m244 390h6v5h-6v-5z"/>
  <path d="m260 390h5v5h-5v-5z"/>
  <path d="m520 390h5v5h-5v-5z"/>
  <path d="m534 390v15h-5v-15h5z"/>
  <path d="m534 390a65 65 0 0 1 1 16h-11c1.4-1 3-1.3 5-1h5v-15z"/>
  <path d="m212 384c1 3.1 1.3 6.5 1 10h10v5h-1v-4h-9v4h-1v-15z"/>
  <path d="m160 394h5v11h-5v-11z"/>
  <path d="m198 394h5v5c2-0.3 3.6 0 5 1h-10v-6z"/>
  <path d="m222 400h-9v-4h9v4z"/>
  <path d="m234 394h5v6h-5v-6z"/>
  <path d="m198 406h-17v-11h6v10c3.9-0.3 7.5 0 11 1z"/>
  <path d="m182 396h4v9h-4v-9z"/>
  <path d="m212 400h11c2-0.3 3.6 0 5 1h-5v10c-1-3.1-1.3-6.5-1-10-3.5 0.3-6.9 0-10-1z"/>
  <path d="m202 400h5v4h-5v-4z"/>
  <path d="m228 400v10h-5v-10h5z"/>
  <path d="m250 400h10v6h-10v-6z"/>
  <path d="m150 400c1 1.4 1.3 3 1 5h-6v-6c2-0.3 3.6 0 5 1z"/>
  <path d="m150 400v4h-4v-4h4z"/>
  <path d="m208 400c1 1 1.3 2.4 1 4 1.6-0.3 3 0 4 1h-5c-2 0.3-3.6 0-5-1h5v-4z"/>
  <path d="m514 400h6v6h-6v-6z"/>
  <path d="m514 400h4v4h-4v-4z"/>
  <path d="m176 416h-5v-11h5v11z"/>
  <path d="m186 406h11v5h-11v-5z"/>
  <path d="m208 406h5c1 1.4 1.3 3 1 5v10c-1-3.1-1.3-6.5-1-10h-5v-5z"/>
  <path d="m524 406h5v5h-5v-5z"/>
  <path d="m244 410v-5h-4v5a9.6 9.6 0 0 1-1-6h6c0.3 2.2 0 4.2-1 6z"/>
  <path d="m244 410h-4v-5h4v5z"/>
  <path d="m150 410h10v5h-10v-5z"/>
  <path d="m198 410h5v5-5h-5z"/>
  <path d="m214 410h4v10h-4v-10z"/>
  <path d="m228 410h5v5h5v5h-10v-10z"/>
  <path d="m250 410h5v5h-5v-5z"/>
  <path d="m524 410v5h-5v-5h5z"/>
  <path d="m546 410h5v5h-5v-5z"/>
  <path d="m150 410v10h-6v-5h5c-0.3-2 0-3.6 1-5z"/>
  <path d="m176 416h11v5h-11v-5z"/>
  <path d="m202 416h5v5h-5v-5z"/>
  <path d="m260 416h5v5h-5v-5z"/>
  <path d="m514 416v5h-10v-5h10z"/>
  <path d="m530 420v-5h5v5h-5z"/>
  <path d="m160 420h10v5h-10v-5z"/>
  <path d="m218 420h5v5h-5v-5z"/>
  <path d="m494 420h5v5h-5v-5z"/>
  <path d="m530 420v11h-5v-11h5z"/>
  <path d="m218 410c1 3.1 1.3 6.5 1 10v5c-1-1-1.3-2.4-1-4-1.6 0.3-3 0-4-1h4v-10z"/>
  <path d="m244 426c-1-1.4-1.3-3-1-5h6v6c-2 0.3-3.6 0-5-1z"/>
  <path d="m244 426v-4h4v4h-4z"/>
  <path d="m514 416c1 1.4 1.3 3 1 5h5v6c-2 0.3-3.6 0-5-1-1-1.4-1.3-3-1-5v-5z"/>
  <path d="m514 426v-4h4v4h-4z"/>
  <path d="m202 426h-5c-2 0.3-3.6 0-5-1-1-1.4-1.3-3-1-5h6v5c2-0.3 3.6 0 5 1z"/>
  <path d="m192 426v-4h4v4h-4z"/>
  <path d="m198 426h5v5h-5v-5z"/>
  <path d="m234 426v4h-10v-4h10z"/>
  <path d="m254 426h5v6h-5v-6z"/>
  <path d="m456 426v5h5v4h-9v-9h4z"/>
  <path d="m472 426v10h-5v-10h5z"/>
  <path d="m508 426v5h-5v-5h5z"/>
  <path d="m456 426v1h-4v9h9v1h-10v-11h5z"/>
  <path d="m472 426h-5v10c-1-3.5-1.3-7.1-1-11 2.2-0.3 4.2 0 6 1z"/>
  <path d="m498 432h-10v5c-1-1.4-1.3-3-1-5h-4c0.3 2 0 3.6-1 5v-5h-5c1.4-1 3-1.3 5-1v-5h6v5c3.5-0.3 6.9 0 10 1z"/>
  <path d="m484 426h4v4h-4v-4z"/>
  <path d="m150 426h6v6h-6v-6z"/>
  <path d="m150 426h4v4h-4v-4z"/>
  <path d="m180 426h6v5h6v6h-7v-5h-5v-6z"/>
  <path d="m182 426h4v4h-4v-4z"/>
  <path d="m218 426h5c3.5-0.3 6.9 0 10 1h-10v4h10c2-0.3 3.6 0 5 1h-16v-5c-1.6 0.3-3 0-4-1z"/>
  <path d="M306.5 430.5h10v-4h-10c3.5-1 7.1-1.3 11-1v5h4v-5h11v5h15v-4h-10c3.5-1 7.1-1.3 11-1v5h9c-.3-2 0-3.6 1-5v5h15v-5h6v5h25v-5h6v5h15v-5c1 1.4 1.3 3 1 5h9v-5h6v5c2-.3 3.6 0 5 1h-10v5h-11v-5h-15v5c-1-1.4-1.3-3-1-5h-4c.3 2 0 3.6-1 5v-5h-25v5c-1-1.4-1.3-3-1-5h-4c.3 2 0 3.6-1 5v-5h-51c.3 2 0 3.6-1 5v-5h-25v5c-1-1.4-1.3-3-1-5h-5v-6h6v5h10Z"/>
  <path d="m436 426h4v4h-4v-4z"/>
  <path d="m426 426v5h-5v-5h5z"/>
  <path d="m406 426h4v4h-4v-4z"/>
  <path d="m394 430h-5v-5h5v5z"/>
  <path d="m374 426h4v4h-4v-4z"/>
  <path d="m358 426h5v5-5h-5z"/>
  <path d="m338 426h10v4h-10v-4z"/>
  <path d="m322 426h9v4h-9v-4z"/>
  <path d="m306 426h10v4h-10v-4z"/>
  <path d="m292 426h4v4h-4v-4z"/>
  <path d="m456 426c1 1.4 1.3 3 1 5h5c0.3 2.2 0 4.2-1 6v-5h-5v-6z"/>
  <path d="m508 426c1 1.4 1.3 3 1 5 3.5-0.3 6.9 0 10 1h-11c-2 0.3-3.6 0-5-1h5v-5z"/>
  <path d="m176 436h-5v-6h5v6z"/>
  <path d="m186 432h5v4h-5v-4z"/>
  <path d="m234 432h5v10h-5v-10z"/>
  <path d="m280 432h5v10h-5v-10z"/>
  <path d="m306 432v5h-10v-5h10z"/>
  <path d="m316 432h5v5h-5v-5z"/>
  <path d="m332 432h5v5h-5v-5z"/>
  <path d="m364 432h10v5h-10v-5z"/>
  <path d="m390 432v5h-10v-5h10zm5 0h10v5h-10v-5z"/>
  <path d="m420 432v5h-10v-5h10z"/>
  <path d="m426 432h9v4h-9v-4z"/>
  <path d="m442 432h5v5h-5v-5zm36 0h5v5h-5v-5z"/>
  <path d="m498 432v5h-10v-5h10z"/>
  <path d="m544 436v-5h-4v5a9.6 9.6 0 0 1-1-6h6c0.3 2.2 0 4.2-1 6z"/>
  <path d="m544 436h-4v-5h4v5z"/>
  <path d="m208 436v-11h6v5h5v6h-11z"/>
  <path d="m208 426h4v5h5v4h-9v-9z"/>
  <path d="m270 432c1.4-1 3-1.3 5-1v6h-6c-0.3-2 0-3.6 1-5z"/>
  <path d="m270 432h4v4h-4v-4z"/>
  <path d="m348 432h1v4h9v-4h1v5h-11v-5z"/>
  <path d="m348 432h9v4h-9v-4z"/>
  <path d="m508 432h1v4h9v-4h1v5h-11v-5z"/>
  <path d="m510 432h9v4h-9v-4z"/>
  <path d="m176 436h6v5h-6v-5z"/>
  <path d="m208 436v5h-10v-5h10z"/>
  <path d="m228 442h-5v-5h5v5zm21 0v-5h5v5h-5z"/>
  <path d="m192 442v5h-5v-5h5z"/>
  <path d="m212 452v-10h6v5h-5c0.3 2 0 3.6-1 5z"/>
  <path d="m250 442v5h-6v-5h6zm72 0h6v5h-6v-5z"/>
  <path d="m228 442h5v10h-5v-10z"/>
  <path d="m260 442h5v5h-5v-5z"/>
  <path d="m290 442h6v5h-6v-5z"/>
  <path d="m306 442h5v5h-5v-5zm31 0h5v5h-5v-5z"/>
  <path d="m358 442h5v5h-5v-5z"/>
  <path d="m436 442h5v5h-5v-5z"/>
  <path d="m524 442h5v5h-5v-5z"/>
  <path d="m390 442h5v5h-5v-5z"/>
  <path d="m472 442h5v5h-5v-5z"/>
  <path d="m192 442c1 1.4 1.3 3 1 5h5v5h-6v-10z"/>
  <path d="m212 446v5h-5v-5h5z"/>
  <path d="m270 446h6v5h-6v-5z"/>
  <path d="m368 446h5v5h-5v-5z"/>
  <path d="m410 446h5v5h-5v-5z"/>
  <path d="m430 452c-1.4 1-3 1.3-5 1v-6h6c0.3 2 0 3.6-1 5z"/>
  <path d="m430 452h-4v-4h4v4z"/>
  <path d="m514 446h6v5h-6v-5z"/>
  <path d="m462 452c-1-1.4-1.3-3-1-5h6v6c-2 0.3-3.6 0-5-1z"/>
  <path d="m462 452v-4h4v4h-4z"/>
  <path d="m202 452h5v10h-5v-10z"/>
  <path d="m228 452v10h-5v-5c-1.4-1-3-1.3-5-1v-4h10z"/>
  <path d="m254 452h5v6h-5v-6z"/>
  <path d="m286 452h5v6h-5v-6z"/>
  <path d="m302 452h5v5-5h-5z"/>
  <path d="m322 452v5h-5v-5h5z"/>
  <path d="m332 452h5v6h-5v-6zm62 0h5v6h-5v-6z"/>
  <path d="m456 452v5h-5v-5h5z"/>
  <path d="m494 452h5v6h-5v-6z"/>
  <path d="m202 452c1.4-1 3-1.3 5-1h5c-1 1-2.4 1.3-4 1v9h10v16c-1-3.1-1.3-6.5-1-10v-5h-10v-10h-5z"/>
  <path d="m228 452h5c-1.4 1-3 1.3-5 1h-10v4c2-0.3 3.6 0 5 1h-6v-6h11z"/>
  <path d="m238 452h6v6h-6v-6z"/>
  <path d="m240 452h4v4h-4v-4z"/>
  <path d="m302 452v5h5a9.6 9.6 0 0 1-6 1c-0.3-2.2 0-4.2 1-6z"/>
  <path d="m322 452c1 1.8 1.3 3.8 1 6-2.2 0.3-4.2 0-6-1h5v-5z"/>
  <path d="m348 452h6v6h-6v-6z"/>
  <path d="m348 452h4v4h-4v-4z"/>
  <path d="m378 452h6v6h-6v-6z"/>
  <path d="m380 452h4v4h-4v-4z"/>
  <path d="m456 452c1 1.8 1.3 3.8 1 6-2.2 0.3-4.2 0-6-1h5v-5z"/>
  <path d="m358 456h5v6h-5v-6z"/>
  <path d="m442 456h5v6h-5v-6z"/>
  <path d="m270 458c1 1.4 1.3 3 1 5h-6v-6c2-0.3 3.6 0 5 1z"/>
  <path d="m270 458v4h-4v-4h4z"/>
  <path d="m406 458c1.4-1 3-1.3 5-1v6h-6c-0.3-2 0-3.6 1-5z"/>
  <path d="m406 458h4v4h-4v-4z"/>
  <path d="m482 456h6v6h-6v-6z"/>
  <path d="m484 458h4v4h-4v-4z"/>
  <path d="m540 458c1 1.4 1.3 3 1 5h-6v-6c2-0.3 3.6 0 5 1z"/>
  <path d="m540 458v4h-4v-4h4z"/>
  <path d="m208 462h10v5h-10v-5z"/>
  <path d="m228 462h10v5h-10v-5z"/>
  <path d="m250 462h5v5h-5v-5z"/>
  <path d="m280 462h5v5h-5v-5z"/>
  <path d="m296 462h6v5h-6v-5z"/>
  <path d="m312 462h5v5h-5v-5z"/>
  <path d="m326 462h6v5h-6v-5z"/>
  <path d="m368 462h5v5h-5v-5zm16 0h5v5h-5v-5z"/>
  <path d="m416 462h5v5h-5v-5z"/>
  <path d="m430 462h6v5h-6v-5z"/>
  <path d="m472 462h5v5h-5v-5z"/>
  <path d="m520 462h5v5h-5v-5z"/>
  <path d="m218 468h5v10h-5v-10z"/>
  <path d="m260 468h5v5h-5v-5z"/>
  <path d="m352 468h6v5h-6v-5zm109 0h6v5h-6v-5z"/>
  <path d="m338 468h5v5h-5v-5z"/>
  <path d="m270 472h6v5h-6v-5zm21 0h6v5h-6v-5z"/>
  <path d="m306 472h5v5h-5v-5z"/>
  <path d="m400 472h6v5h-6v-5z"/>
  <path d="m240 472v5h4v-5c1 1.8 1.3 3.8 1 6h-6c-0.3-2.2 0-4.2 1-6z"/>
  <path d="m240 472h4v5h-4v-5z"/>
  <path d="m202 482h5v6h-5v-6z"/>
  <path d="m118 524h-5v-5h5v5z"/>
  <path d="m134 524h-5v-5h5v5z"/>
  <path d="m154 520v5h-10v-5h10z"/>
  <path d="m176 520v5h-10v-5h10z"/>
  <path d="m192 520v5h-5v-5h5z"/>
  <path d="m208 524h-5v-5h5v5z"/>
  <path d="m118 524h5v5h-5v-5z"/>
  <path d="m134 524h10v10h-5v-5h-5v-5z"/>
  <path d="m154 520c1 1.4 1.3 3 1 5h5v10h-5c-1-3.1-1.3-6.5-1-10v-5z"/>
  <path d="m176 524h5v5h5v5h-10v-10z"/>
  <path d="m192 524h5v10h5v5h-10v-15zm15 0h5v10h-5v-10z"/>
  <path d="m224 524h5v10h-5v-10z"/>
  <path d="m192 520c1 1.4 1.3 3 1 5v15h10c2-0.3 3.6 0 5 1h-26c3.1-1 6.5-1.3 10-1v-20z"/>
  <path d="m108 530h5v5h-5v-5z"/>
  <path d="m238 530v10h-5v-10h5z"/>
  <path d="m124 524c1 1.4 1.3 3 1 5v5h4v-5c1 1.8 1.3 3.8 1 6h-6v-11z"/>
  <path d="m124 530h4v5h-4v-5z"/>
  <path d="m140 534h11v6c-2.2 0.3-4.2 0-6-1h5v-4h-5c-2 0.3-3.6 0-5-1z"/>
  <path d="m176 520c1 1.4 1.3 3 1 5v10h10c-3.5 1-7.1 1.3-11 1v-16z"/>
  <path d="m144 536h5v4h-5v-4zm26 0v5h5v5h-10v-5c-1.4-1-3-1.3-5-1v-4h10z"/>
  <path d="m156 534h5c3.5-0.3 6.9 0 10 1h-10v4c2-0.3 3.6 0 5 1h-6v-5c-1.6 0.3-3 0-4-1z"/>
  <path d="m212 524c1 3.1 1.3 6.5 1 10h5v11h-6v-10c-2 0.3-3.6 0-5-1h5v-10z"/>
  <path d="m214 536h4v9h-4v-9z"/>
  <path d="m556 540h-10v5c-1-1.4-1.3-3-1-5h-5v-6h6v5c3.5-0.3 6.9 0 10 1z"/>
  <path d="m540 536h4v4h-4v-4z"/>
  <path d="m134 546v-5h5v5h-5z"/>
  <path d="m182 540h11v5h-6v5h-6c-0.3-3.5 0-6.9 1-10z"/>
  <path d="m202 540h5v10h-5v-10z"/>
  <path d="m224 540h5v5h5v5h-10v-10z"/>
  <path d="m264 546h-10v-5h10v5z"/>
  <path d="m280 546h-5v-6h5v6z"/>
  <path d="m394 546h-5v-5h5v5z"/>
  <path d="m426 550h-5v-11h5v11z"/>
  <path d="m446 540h11v5h-11v-5zm15 0h11v5h-11v-5z"/>
  <path d="m478 540h11v5h-6v5h-5v-10z"/>
  <path d="m494 540h10v5h-5v5h-5v-10z"/>
  <path d="m514 546c-1 1.4-1.3 3-1 5h-4v-10h9v4c-1.6-0.3-3 0-4 1z"/>
  <path d="m534 546h-10v-5h10v5z"/>
  <path d="m556 540v5h-10v-5h10z"/>
  <path d="m560 540h11v5h-11v-5z"/>
  <path d="m124 540c1 1.4 1.3 3 1 5h-6v-6c2-0.3 3.6 0 5 1z"/>
  <path d="m124 540v4h-4v-4h4z"/>
  <path d="m238 530c1 3.1 1.3 6.5 1 10h4v-5h6v6h-5v15h5c0.3 2 0 3.6-1 5v-4h-4v4c-1-1.4-1.3-3-1-5v-15h-4v26h-11c1.4-1 3-1.3 5-1h5v-25c-2 0.3-3.6 0-5-1h5v-10z"/>
  <path d="m244 556h-4v-15h4v15z"/>
  <path d="m244 536h4v4h-4v-4z"/>
  <path d="m328 546v5c-1-1.4-1.3-3-1-5v-5h-4v5a9.6 9.6 0 0 1-1-6h6v6z"/>
  <path d="m326 546h-4v-5h4v5z"/>
  <path d="m378 540c1 1.4 1.3 3 1 5v10c-1-3.1-1.3-6.5-1-10h-5v-6c2-0.3 3.6 0 5 1z"/>
  <path d="m378 540v4h-4v-4h4z"/>
  <path d="m358 546h-6 6z"/>
  <path d="m354 540h4v4h-4v-4z"/>
  <path d="m406 540c3.1-1 6.5-1.3 10-1v6h-11c-0.3-2 0-3.6 1-5z"/>
  <path d="m406 540h9v4h-9v-4z"/>
  <path d="m430 540h11v6h-11v-6z"/>
  <path d="m432 540h9v4h-9v-4z"/>
  <path d="m514 546c1-1 2.4-1.3 4-1v-4h-9v10c-1-3.5-1.3-7.1-1-11h11v6h-5z"/>
  <path d="m134 546h5v-5h-5v5z"/>
  <path d="m150 546h11v5h-11v-5z"/>
  <path d="m254 546v5h-5v-5h5z"/>
  <path d="m264 546h6v5h5v5h5v5h-11v-5h-5v-10z"/>
  <path d="m280 546h10v10h-5v-5h-5v-5z"/>
  <path d="m306 556h-5v-5h-6v-5h11v10z"/>
  <path d="m312 556v-10h5v5h5v5h-10z"/>
  <path d="m328 546h10v5h-10v-5z"/>
  <path d="m342 546h5v5h6v5h-11v-10z"/>
  <path d="m358 546h10v5h-10v-5z"/>
  <path d="m380 546h5v5h5v5h-10v-10z"/>
  <path d="m394 546h5v5h6v5h-11v-10z"/>
  <path d="m534 546h5v5h-5v-5z"/>
  <path d="m208 550h10v5h-10v-5z"/>
  <path d="m456 550h6v5h-6v-5zm120 0h6v5h-6v-5z"/>
  <path d="m108 550h5v5h-5v-5zm36 5h-5v-5h5v5z"/>
  <path d="m176 550v5h-5v-5h5z"/>
  <path d="m202 550v5h-10v-5h10z"/>
  <path d="m368 550h5v5h-5v-5z"/>
  <path d="m410 550h5v5h-5v-5z"/>
  <path d="m426 550h5v5h-5v-5z"/>
  <path d="m442 550h5v5h-5v-5z"/>
  <path d="m254 550h5v10h-5v-10z"/>
  <path d="m124 556v5h-5v-5h5z"/>
  <path d="m144 556h5v10h-5v-10z"/>
  <path d="m160 556h5v10h-5v-10z"/>
  <path d="m218 556h10v5h-5v5h-5v-10zm20 0v10h-5v-10h5z"/>
  <path d="m248 560h-4v-4h4v4z"/>
  <path d="m306 556h5v5h-5v-5z"/>
  <path d="m468 556h5v5h-5v-5z"/>
  <path d="m514 556h6v5h-6v-5z"/>
  <path d="m150 556c1 3.5 1.3 7.1 1 11-2.2 0.3-4.2 0-6-1h5v-10z"/>
  <path d="m160 556v10h5a9.6 9.6 0 0 1-6 1c-0.3-3.9 0-7.5 1-11z"/>
  <path d="m176 550c1 1.4 1.3 3 1 5v10h4v-10c1 3.5 1.3 7.1 1 11h-6v-16z"/>
  <path d="m176 556h4v10h-4v-10z"/>
  <path d="m218 550c1 1.4 1.3 3 1 5v10h5a9.6 9.6 0 0 1-6 1v-16z"/>
  <path d="m290 556h6-6z"/>
  <path d="m296 560h-4v-4h4v4z"/>
  <path d="m328 560c-1-1.4-1.3-3-1-5h6v6c-2 0.3-3.6 0-5-1z"/>
  <path d="m328 560v-4h4v4h-4z"/>
  <path d="m540 556v5h4v-5c1 1.8 1.3 3.8 1 6h-6c-0.3-2.2 0-4.2 1-6z"/>
  <path d="m540 556h4v5h-4v-5z"/>
  <path d="m208 572h-5v-11h5v11z"/>
  <path d="m338 560h5v6h-5v-6zm26 0h5v6h-5v-6zm52 0h5v6h-5v-6z"/>
  <path d="m456 560v5h-5v-5h5z"/>
  <path d="m504 560h5v6h-5v-6z"/>
  <path d="m124 556c1 1.4 1.3 3 1 5h5v12h-6v-11c-2 0.3-3.6 0-5-1h5v-5z"/>
  <path d="m124 562h4v10h-4v-10z"/>
  <path d="m456 560c1 1.8 1.3 3.8 1 6-2.2 0.3-4.2 0-6-1h5v-5z"/>
  <path d="m488 560h6v6h-6v-6z"/>
  <path d="m488 562h4v4h-4v-4z"/>
  <path d="m228 566h5v10h-5v-10z"/>
  <path d="m260 566h5v7h-5v-7z"/>
  <path d="m280 566h5v7h-5v-7z"/>
  <path d="m296 566h4v5h-4c-1.3-1.7-1.3-3.3 0-5z"/>
  <path d="m322 566v5h-4v-5h4z"/>
  <path d="m354 566h4v5h-4c-1.3-1.7-1.3-3.3 0-5z"/>
  <path d="m572 566v5h-5v-5h5z"/>
  <path d="m296 566c1.4-1 3-1.3 5-1v7c-2 0.3-3.6 0-5-1h4v-5h-4z"/>
  <path d="m322 566h-4v5h4c-1.4 1-3 1.3-5 1v-7c2-0.3 3.6 0 5 1z"/>
  <path d="m354 566c1.4-1 3-1.3 5-1v7c-2 0.3-3.6 0-5-1h4v-5h-4z"/>
  <path d="m430 566h6v7h-6v-7z"/>
  <path d="m432 566h4v5h-4v-5z"/>
  <path d="m572 566h-5v5h5a9.6 9.6 0 0 1-6 1v-7c2.2-0.3 4.2 0 6 1z"/>
  <path d="m202 578h-11v-5c-2 0.3-3.6 0-5-1-1-3.5-1.3-7.1-1-11h7v11h5v5c2-0.3 3.6 0 5 1z"/>
  <path d="m186 572v-10h5v10h-5z"/>
  <path d="m202 572h16v5c2-0.3 3.6 0 5 1h-5v5c-1-1.4-1.3-3-1-5h-10v-5c-2 0.3-3.6 0-5-1z"/>
  <path d="m114 572h5v6h-5v-6z"/>
  <path d="m134 572h10v6h-10v-6z"/>
  <path d="m176 572v4h-10v-5c3.5-0.3 6.9 0 10 1z"/>
  <path d="m192 572h4v4h-4v-4zm16 0h9v4h-9v-4z"/>
  <path d="m250 572h5v6h-5v-6z"/>
  <path d="m306 572h5v6h-5v-6z"/>
  <path d="m176 572c1 1 1.3 2.4 1 4 3.5-0.3 6.9 0 10 1h-11c-3.5 0.3-6.9 0-10-1h10v-4z"/>
  <path d="m154 582v-5h-4v5a9.6 9.6 0 0 1-1-6h5c-0.3-1.6 0-3 1-4 1.4-1 3-1.3 5-1v6h-5c0.3 2 0 3.6-1 5z"/>
  <path d="m154 582h-4v-5h4v5z"/>
  <path d="m156 572h4v4h-4v-4z"/>
  <path d="m176 578h11v5h-11v-5z"/>
  <path d="m198 578h5v5h-5v-5z"/>
  <path d="m224 578v5h-5v-5h5z"/>
  <path d="m228 576h10v11h-5v-10c-2 0.3-3.6 0-5-1z"/>
  <path d="m566 582h-5v-5h5v5z"/>
  <path d="m578 578c1.4-1 3-1.3 5-1v6h-6c-0.3-2 0-3.6 1-5z"/>
  <path d="m578 578h4v4h-4v-4z"/>
  <path d="m118 582h5v5h-5v-5z"/>
  <path d="m140 582h5v5h-5v-5z"/>
  <path d="m160 582h5v10h-5v-10z"/>
  <path d="m186 582h5v5h-5v-5z"/>
  <path d="m214 588v5c-1-1.4-1.3-3-1-5h-5v-5h6v5z"/>
  <path d="m224 582h5v5h-5v-5z"/>
  <path d="m508 582h6v5h-6v-5z"/>
  <path d="m524 582h5v5h-5v-5z"/>
  <path d="m546 582h5v5h-5v-5z"/>
  <path d="m566 582h5v10h-5v-10z"/>
  <path d="m130 588h5v5h-5v-5z"/>
  <path d="m176 598h-5v-10h5v10z"/>
  <path d="m192 582c1 1.4 1.3 3 1 5h5v5h-6v-10z"/>
  <path d="m214 588h4v5h-4v-5z"/>
  <path d="m244 588h6v5h-6v-5z"/>
  <path d="m332 588h5v5h-5v-5z"/>
  <path d="m384 588h5v5h-5v-5z"/>
  <path d="m410 588h5v5h-5v-5z"/>
  <path d="m452 588h5v5h-5v-5z"/>
  <path d="m498 588h5v5h-5v-5z"/>
  <path d="m354 598c-1-1.4-1.3-3-1-5h6v6c-2 0.3-3.6 0-5-1z"/>
  <path d="m154 592v5h-10v-5h10z"/>
  <path d="m202 592h5v11h-5v-11z"/>
  <path d="m218 594h4v9h-4v-9z"/>
  <path d="m228 592h11v5h-11v-5z"/>
  <path d="m286 592h5v5h-5v-5z"/>
  <path d="m354 598v-4h4v4h-4z"/>
  <path d="m368 592h5v6h-5v-6z"/>
  <path d="m472 592h5v5h-5v-5z"/>
  <path d="m218 588c1 1.4 1.3 3 1 5v11c0.3 2 0 3.6-1 5v-5h-4v5a9.6 9.6 0 0 1-1-6h5v-9c-1.6 0.3-3 0-4-1h4v-5z"/>
  <path d="m218 594v-1h5v11h-5v-1h4v-9h-4z"/>
  <path d="m322 598c-1.4 1-3 1.3-5 1v-6h6c0.3 2 0 3.6-1 5z"/>
  <path d="m322 598h-4v-4h4v4z"/>
  <path d="m436 598c-1-1.4-1.3-3-1-5h6v6c-2 0.3-3.6 0-5-1z"/>
  <path d="m436 598v-4h4v4h-4z"/>
  <path d="m488 598c-1-1.4-1.3-3-1-5h6v6c-2 0.3-3.6 0-5-1z"/>
  <path d="m488 598v-4h4v4h-4z"/>
  <path d="m540 592h6v6h-6v-6z"/>
  <path d="m540 594h4v4h-4v-4z"/>
  <path d="m566 582h1v10h5c-1.4 1-3 1.3-5 1 0.3 1.6 0 3-1 4-1.4 1-3 1.3-5 1v-6h5v-10z"/>
  <path d="m566 598h-4v-4h4v4z"/>
  <path d="m154 592c1 1.8 1.3 3.8 1 6-3.9 0.3-7.5 0-11-1h10v-5z"/>
  <path d="m198 604h-5v5c-1-1.4-1.3-3-1-5h-6v-5c-1.6 0.3-3 0-4-1-1-1.4-1.3-3-1-5h6v5h6v5c2-0.3 3.6 0 5 1z"/>
  <path d="m182 598v-4h4v4h-4z"/>
  <path d="m114 598h5v6h-5v-6z"/>
  <path d="m134 598h5v6h-5v-6z"/>
  <path d="m170 598h5c-1.4 1-3 1.3-5 1v5h-5v-6h5z"/>
  <path d="m186 598h5v4h-5v-4z"/>
  <path d="m250 598h5v6h-5v-6z"/>
  <path d="m276 598h5v5-5h-5z"/>
  <path d="m306 598v4h-5v-4h5z"/>
  <path d="m446 598h5v6h-5v-6z"/>
  <path d="m306 598h-5v4h5a9.6 9.6 0 0 1-6 1v-6c2.2-0.3 4.2 0 6 1z"/>
  <path d="m276 598v5h5a9.6 9.6 0 0 1-6 1c-0.3-2.2 0-4.2 1-6z"/>
  <path d="m326 598h6v6h-6v-6z"/>
  <path d="m328 598h4v4h-4v-4z"/>
  <path d="m404 598h6v6h-6v-6z"/>
  <path d="m406 598h4v4h-4v-4z"/>
  <path d="m198 604v5h-5v-5h5z"/>
  <path d="m218 608h-4v-5h4v5z"/>
  <path d="m228 608v-5h5v5h-5zm83-5h5v5h-5v-5z"/>
  <path d="m494 604h5v5h-5v-5z"/>
  <path d="m524 604h5v5h-5v-5zm31 0h5v5h-5v-5z"/>
  <path d="m572 604v10h-5v-10h5z"/>
  <path d="m128 608v-5h-4v5a9.6 9.6 0 0 1-1-6h6c0.3 2.2 0 4.2-1 6z"/>
  <path d="m128 608h-4v-5h4v5z"/>
  <path d="m348 604c1 1.4 1.3 3 1 5h-6v-6c2-0.3 3.6 0 5 1z"/>
  <path d="m348 604v4h-4v-4h4z"/>
  <path d="m436 608v-5h-4v5a9.6 9.6 0 0 1-1-6h6c0.3 2.2 0 4.2-1 6z"/>
  <path d="m436 608h-4v-5h4v5z"/>
  <path d="m572 604h-5v10c-1-3.5-1.3-7.1-1-11 2.2-0.3 4.2 0 6 1z"/>
  <path d="m156 604c1.4-1 3-1.3 5-1v6h-6c-0.3-2 0-3.6 1-5z"/>
  <path d="m156 604h4v4h-4v-4z"/>
  <path d="m180 604c1 1.4 1.3 3 1 5h-5c0.3 2 0 3.6-1 5v-11c2-0.3 3.6 0 5 1z"/>
  <path d="m180 604v4h-4v-4h4z"/>
  <path d="m378 604c1 1.4 1.3 3 1 5h-6v-6c2-0.3 3.6 0 5 1z"/>
  <path d="m378 604v4h-4v-4h4z"/>
  <path d="m514 604c1 1.4 1.3 3 1 5h-6v-6c2-0.3 3.6 0 5 1z"/>
  <path d="m514 604v4h-4v-4h4z"/>
  <path d="m140 608h5v5h-5v-5z"/>
  <path d="m176 608v5h-5v-5h5z"/>
  <path d="m208 618h-5v-10h5v10z"/>
  <path d="m228 608v5h-5v-5h5z"/>
  <path d="m238 614v-5h6v5h-6zm31-5h6v5h-6v-5zm21 0h6v5h-6v-5z"/>
  <path d="m390 608h10v5h-10v-5z"/>
  <path d="m416 608h5v5h-5v-5z"/>
  <path d="m478 608h5v5h-5v-5z"/>
  <path d="m546 608h5v5h-5v-5z"/>
  <path d="m118 614h5v5h-5v-5z"/>
  <path d="m166 618h-5v-5h5v5z"/>
  <path d="m192 614v5h-11v-5h11z"/>
  <path d="m224 614v5h-5v-5h5z"/>
  <path d="m238 614v10h-10v-5h5v-5h5z"/>
  <path d="m348 614h11v5h-11v-5z"/>
  <path d="m378 614h6v5h-6v-5zm26 0h6v5h-6v-5z"/>
  <path d="m452 614h5v5h-5v-5z"/>
  <path d="m514 614h6v5h-6v-5z"/>
  <path d="m364 614h5v5h-5v-5zm135 0h5v5h-5v-5z"/>
  <path d="m130 624c-1-1.4-1.3-3-1-5h6v6c-2 0.3-3.6 0-5-1zm307 0c-1-1.4-1.3-3-1-5h6v6c-2 0.3-3.6 0-5-1z"/>
  <path d="m130 624v-4h4v4h-4z"/>
  <path d="m150 618v5c-1.4 1-3 1.3-5 1h-5c1.4-1 3-1.3 5-1v-5h5z"/>
  <path d="m166 618h5v5h-5v-5z"/>
  <path d="m208 618h5v10h-5v-10z"/>
  <path d="m276 618h15v5h-15v-5z"/>
  <path d="m302 618h5v5h-5v-5z"/>
  <path d="m332 618h5v5h-5v-5z"/>
  <path d="m436 624v-4h4v4h-4z"/>
  <path d="m534 624h-5v-5h5v5z"/>
  <path d="m566 618v10h-5v-10h5z"/>
  <path d="m150 614v5h4v-5c1 1.8 1.3 3.8 1 6h-5c0.3 1.6 0 3-1 4v-5c-0.3-2 0-3.6 1-5z"/>
  <path d="m150 614h4v5h-4v-5z"/>
  <path d="m192 614c1 1.4 1.3 3 1 5h5v6c-2 0.3-3.6 0-5-1-1-1.4-1.3-3-1-5v-5z"/>
  <path d="m192 624v-4h4v4h-4z"/>
  <path d="m270 624c-1.4 1-3 1.3-5 1v-6h6c0.3 2 0 3.6-1 5z"/>
  <path d="m270 624h-4v-4h4v4z"/>
  <path d="m462 624c-1-1.4-1.3-3-1-5h6v6c-2 0.3-3.6 0-5-1z"/>
  <path d="m462 624v-4h4v4h-4z"/>
  <path d="m488 624c-1.4 1-3 1.3-5 1v-6h6c0.3 2 0 3.6-1 5z"/>
  <path d="m488 624h-4v-4h4v4z"/>
  <path d="m578 624c-1-1.4-1.3-3-1-5h6v6c-2 0.3-3.6 0-5-1z"/>
  <path d="m578 624v-4h4v4h-4z"/>
  <path d="m228 624h10c-3.1 1-6.5 1.3-10 1h-5v4h5a9.6 9.6 0 0 1-6 1v-6h6z"/>
  <path d="m140 624h5v4h-5v-4z"/>
  <path d="m228 624v4h-5v-4h5z"/>
  <path d="m254 624h5v6h-5v-6z"/>
  <path d="m348 624v5h-5v-5h5z"/>
  <path d="m394 624h5v6h-5v-6z"/>
  <path d="m410 624h5v5-5h-5z"/>
  <path d="m446 624h5v6h-5v-6z"/>
  <path d="m494 624h5v5-5h-5z"/>
  <path d="m530 624h5c-1.4 1-3 1.3-5 1v5h-5v-6h5z"/>
  <path d="m546 624h4v9h-4v-9z"/>
  <path d="m546 624v11c0.3 2 0 3.6-1 5v-5h-4c1-1 2.4-1.3 4-1-0.3-3.5 0-6.9 1-10z"/>
  <path d="m546 624v-1h5v11h-5v-1h4v-9h-4z"/>
  <path d="m154 624h6v6h-6v-6z"/>
  <path d="m156 624h4v4h-4v-4z"/>
  <path d="m176 634v-5h-5c1.4-1 3-1.3 5-1v-5h6v6h-5c0.3 2 0 3.6-1 5z"/>
  <path d="m176 624h4v4h-4v-4z"/>
  <path d="m212 618c1 3.1 1.3 6.5 1 10h5v16c-1-1.4-1.3-3-1-5v-10h-4v10c-1-3.1-1.3-6.5-1-10-2 0.3-3.6 0-5-1h5v-10z"/>
  <path d="m316 624h6v6h-6v-6z"/>
  <path d="m318 624h4v4h-4v-4z"/>
  <path d="m348 624c1 1.8 1.3 3.8 1 6-2.2 0.3-4.2 0-6-1h5v-5z"/>
  <path d="m410 624v5h5a9.6 9.6 0 0 1-6 1c-0.3-2.2 0-4.2 1-6z"/>
  <path d="m494 624v5h5a9.6 9.6 0 0 1-6 1c-0.3-2.2 0-4.2 1-6z"/>
  <path d="m566 618c1 3.1 1.3 6.5 1 10 2-0.3 3.6 0 5 1h-5v10c-1-3.1-1.3-6.5-1-10-2 0.3-3.6 0-5-1h5v-10z"/>
  <path d="m140 628h5c-1.4 1-3 1.3-5 1v5h-5v-6h5z"/>
  <path d="m170 630h5v5h-5v-5z"/>
  <path d="m186 630h5v4h-5v-4z"/>
  <path d="m198 640v-10h5v10h-5z"/>
  <path d="m218 640h-4v-10h4v10z"/>
  <path d="m364 628h5v6h-5v-6z"/>
  <path d="m572 630v10h-5v-10h5z"/>
  <path d="m124 630c1 1.4 1.3 3 1 5h-6v-6c2-0.3 3.6 0 5 1z"/>
  <path d="m124 630v4h-4v-4h4z"/>
  <path d="m186 630c1.8-1 3.8-1.3 6-1v6h-6v-1h5v-4h-5z"/>
  <path d="m436 634v-5h-4v5a9.6 9.6 0 0 1-1-6h6c0.3 2.2 0 4.2-1 6z"/>
  <path d="m436 634h-4v-5h4v5z"/>
  <path d="m462 634v-5h-4v5a9.6 9.6 0 0 1-1-6h6c0.3 2.2 0 4.2-1 6z"/>
  <path d="m462 634h-4v-5h4v5z"/>
  <path d="m238 630c1 1.4 1.3 3 1 5h-6v-6c2-0.3 3.6 0 5 1z"/>
  <path d="m238 630v4h-4v-4h4z"/>
  <path d="m296 630c1.4-1 3-1.3 5-1v6h-6c-0.3-2 0-3.6 1-5z"/>
  <path d="m296 630h4v4h-4v-4z"/>
  <path d="m328 630c1.4-1 3-1.3 5-1v6h-6c-0.3-2 0-3.6 1-5z"/>
  <path d="m328 630h4v4h-4v-4z"/>
  <path d="m380 630c1.4-1 3-1.3 5-1v6h-6c-0.3-2 0-3.6 1-5z"/>
  <path d="m380 630h4v4h-4v-4z"/>
  <path d="m144 634h5v5h-5v-5z"/>
  <path d="m160 640v-5h5v5h-5z"/>
  <path d="m186 634v5h-6v-5h6z"/>
  <path d="m234 634v5h-5v-5h5z"/>
  <path d="m270 634h6v5h-6v-5z"/>
  <path d="m348 634h6v5h-6v-5z"/>
  <path d="m390 634h5v5h-5v-5zm83 0h5v5h-5v-5zm26 0h5v5h-5v-5z"/>
  <path d="m540 634h4v5h-5c-0.3-2 0-3.6 1-5z"/>
  <path d="m124 640h6v5h-6v-5z"/>
  <path d="m156 640h5v5h-5v-5z"/>
  <path d="m238 644v-5h6v5h-6zm135-5h6v5h-6v-5zm31 0h6v5h-6v-5zm78 0h6v5h-6v-5zm37 5h-6v-5h6v5z"/>
  <path d="m170 640h5v10h-5v-10z"/>
  <path d="m192 640h5v5h-5v-5z"/>
  <path d="m218 640h5v5h-5v-5z"/>
  <path d="m260 640h5v5h-5v-5z"/>
  <path d="m286 640h5v5h-5v-5z"/>
  <path d="m312 640h5v5h-5v-5zm21 0h5v5h-5v-5z"/>
  <path d="m358 640h5v5h-5v-5z"/>
  <path d="m426 640h5v5h-5v-5z"/>
  <path d="m446 640h5v5h-5v-5z"/>
  <path d="m534 644h-5v-5h5v5z"/>
  <path d="m114 644h5v5h-5v-5zm26 5h-5v-5h5v5z"/>
  <path d="m154 644v5h-5v-5h5z"/>
  <path d="m156 640v11c-2.2 0.3-4.2 0-6-1h5v-5c-0.3-2 0-3.6 1-5z"/>
  <path d="m192 644v10h-5v-10h5z"/>
  <path d="m212 644v5h-10v-5h10z"/>
  <path d="m224 644h5v5h-5v-5z"/>
  <path d="m238 644v10h-5v-10h5z"/>
  <path d="m296 644h6v5h-6v-5z"/>
  <path d="m342 644h5v5h-5v-5z"/>
  <path d="m394 644h5v5h-5v-5z"/>
  <path d="m462 644v5h-5v-5h5z"/>
  <path d="m504 644h5v5h-5v-5z"/>
  <path d="m520 644h5v5h-5v-5z"/>
  <path d="m550 644h5v5h-5v-5z"/>
  <path d="m582 644h5v5h-5v-5z"/>
  <path d="m192 640v16c-2.2 0.3-4.2 0-6-1h5v-10c-0.3-2 0-3.6 1-5z"/>
  <path d="m534 644h6-6z"/>
  <path d="m540 650h-4v-4h4v4z"/>
  <path d="m462 644c1 1.8 1.3 3.8 1 6-2.2 0.3-4.2 0-6-1h5v-5z"/>
  <path d="m134 650h10v11h-5v-10c-2 0.3-3.6 0-5-1z"/>
  <path d="m160 650h5v6h-5v-6z"/>
  <path d="m254 650h5v6h-5v-6z"/>
  <path d="m276 650h5v6h-5v-6zm109 0h5v6h-5v-6z"/>
  <path d="m442 650h5v6h-5v-6z"/>
  <path d="m468 650h5v6h-5v-6z"/>
  <path d="m212 644c1 1.4 1.3 3 1 5h5v16c-1-1.4-1.3-3-1-5h-5v-10c-3.5 0.3-6.9 0-10-1h10v-5z"/>
  <path d="m214 650h4v9h-4v-9z"/>
  <path d="m322 650h6v6h-6v-6z"/>
  <path d="m322 650h4v4h-4v-4z"/>
  <path d="m410 654c-1-1.4-1.3-3-1-5h6v6c-2 0.3-3.6 0-5-1z"/>
  <path d="m410 654v-4h4v4h-4z"/>
  <path d="m430 650h6v6h-6v-6z"/>
  <path d="m432 650h4v4h-4v-4z"/>
  <path d="m566 654c-1.4 1-3 1.3-5 1v-6h6c0.3 2 0 3.6-1 5z"/>
  <path d="m566 654h-4v-4h4v4z"/>
  <path d="m170 656c3.5-1 7.1-1.3 11-1v6c-3.9 0.3-7.5 0-11-1h10v-4h-10z"/>
  <path d="m488 650h6v6h-6v-6z"/>
  <path d="m488 650h4v4h-4v-4z"/>
  <path d="m170 656h10v4h-10v-4z"/>
  <path d="m202 660h-5v-6h5v6z"/>
  <path d="m228 656h5v5-5h-5z"/>
  <path d="m312 654h5v6h-5v-6z"/>
  <path d="m338 654h5v6h-5v-6z"/>
  <path d="m358 654h5v6h-5v-6z"/>
  <path d="m478 654h5v6h-5v-6z"/>
  <path d="m498 654h5v6h-5v-6zm26 0h5v6h-5v-6z"/>
  <path d="m296 656c1 1.4 1.3 3 1 5h-6v-6c2-0.3 3.6 0 5 1z"/>
  <path d="m296 656v4h-4v-4h4z"/>
  <path d="m124 656c1 1.4 1.3 3 1 5h-6v-6c2-0.3 3.6 0 5 1z"/>
  <path d="m124 656v4h-4v-4h4z"/>
  <path d="m228 656c1.4-1 3-1.3 5-1h5c-1 1-2.4 1.3-4 1v4c1.6-0.3 3 0 4 1h-5v-5h-5z"/>
  <path d="m270 656c1 1.4 1.3 3 1 5h-6v-6c2-0.3 3.6 0 5 1z"/>
  <path d="m270 656v4h-4v-4h4z"/>
  <path d="m378 656c1 1.4 1.3 3 1 5h-6v-6c2-0.3 3.6 0 5 1z"/>
  <path d="m378 656v4h-4v-4h4z"/>
  <path d="m560 660h-16c-0.3-2 0-3.6 1-5 1.4-1 3-1.3 5-1v5c3.5-0.3 6.9 0 10 1z"/>
  <path d="m546 656h4v4h-4v-4z"/>
  <path d="m578 656c1.4-1 3-1.3 5-1v6h-6c-0.3-2 0-3.6 1-5z"/>
  <path d="m578 656h4v4h-4v-4z"/>
  <path d="m130 660h5v5h-5v-5z"/>
  <path d="m192 666h-6v-5h6v5z"/>
  <path d="m202 660h5v5-5h-5z"/>
  <path d="m218 660h5v5h-5v-5z"/>
  <path d="m234 660h5v5h-5v-5zm16 0h5v5h-5v-5z"/>
  <path d="m280 660h5v5h-5v-5z"/>
  <path d="m302 660h5v5h-5v-5z"/>
  <path d="m326 660h6v5h-6v-5z"/>
  <path d="m394 660h5v5h-5v-5zm21 0h5v5h-5v-5z"/>
  <path d="m442 666h-6v-5h6v5zm67-5h11v5h-5v5h-6v-10z"/>
  <path d="m540 660v5h-5v-5h5z"/>
  <path d="m550 660h10v5h-10v-5z"/>
  <path d="m572 660v10h-5v-10h5z"/>
  <path d="m592 660h5v5h-5v-5z"/>
  <path d="m156 666v5c-1-1.4-1.3-3-1-5v-5h-4v5a9.6 9.6 0 0 1-1-6h6v6z"/>
  <path d="m154 666h-4v-5h4v5z"/>
  <path d="m352 666v-5h-4v5a9.6 9.6 0 0 1-1-6h6c0.3 2.2 0 4.2-1 6z"/>
  <path d="m352 666h-4v-5h4v5z"/>
  <path d="m462 666v5c-1-1.4-1.3-3-1-5v-5h-4v5a9.6 9.6 0 0 1-1-6h6v6z"/>
  <path d="m462 666h-4v-5h4v5z"/>
  <path d="m572 660h-5v10c-1-3.5-1.3-7.1-1-11 2.2-0.3 4.2 0 6 1z"/>
  <path d="m156 666h10v5h-10v-5z"/>
  <path d="m192 666h5v10h-5v-10z"/>
  <path d="m208 666h5v10h-5v-10z"/>
  <path d="m270 666h6v5h-6v-5z"/>
  <path d="m316 666h5v5h-5v-5z"/>
  <path d="m374 670h-5v-5h5v5z"/>
  <path d="m426 670v-5h5v5h-5z"/>
  <path d="m462 666h10v5h-10v-5z"/>
  <path d="m498 670h-16v-5h16v5z"/>
  <path d="m588 670h-5v-5h5v5z"/>
  <path d="m602 666h6v5h-6v-5z"/>
  <path d="m118 670h-5v-5h5v5z"/>
  <path d="m224 666h5v10h-5v-10z"/>
  <path d="m442 666h10v5h-10v-5zm93 0v5h-10v-5h10z"/>
  <path d="m176 666v10h4v-10c1 3.1 1.3 6.5 1 10h5v6c-2 0.3-3.6 0-5-1-1-1-1.3-2.4-1-4h-5c-0.3-3.9 0-7.5 1-11z"/>
  <path d="m176 666h4v10h-4v-10z"/>
  <path d="m118 670h10v5h-10v-5z"/>
  <path d="m140 670h10v5h-10v-5z"/>
  <path d="m254 670h5v5h-5v-5z"/>
  <path d="m290 670h6v5h-6v-5z"/>
  <path d="m306 670h5v5h-5v-5z"/>
  <path d="m358 670h5v5h5v5h-10v-10zm15 0h21v5h-21v-5z"/>
  <path d="m426 670v5h-5v-5h5z"/>
  <path d="m452 670h5v10h-5v-10z"/>
  <path d="m472 670h5v5-5h-5z"/>
  <path d="m498 670h5v5h5v5h-10v-10zm62 5h-5v-5h5v5z"/>
  <path d="m572 670h5v5h-5v-5z"/>
  <path d="m588 670h5v5-5h-5z"/>
  <path d="m614 670h5v5h-5v-5z"/>
  <path d="m524 670v11c-2 0.3-3.6 0-5-1-1-3.1-1.3-6.5-1-10h6z"/>
  <path d="m520 680v-9h4v9h-4z"/>
  <path d="m128 670c1 1.8 1.3 3.8 1 6-3.9 0.3-7.5 0-11-1h10v-5z"/>
  <path d="m348 676v1h-25v4h-1v-5h26z"/>
  <path d="m576 670c1 1.4 1.3 3 1 5h5v6c-2 0.3-3.6 0-5-1-1-1-1.3-2.4-1-4-2 0.3-3.6 0-5-1h5v-5z"/>
  <path d="m108 676h5v11h-5v-11z"/>
  <path d="m176 682h-10v-6h5v5c2-0.3 3.6 0 5 1z"/>
  <path d="m182 680v-4h4v4h-4z"/>
  <path d="m198 676h5v11h-5v-11z"/>
  <path d="m228 676h10v4c-3.1 1-6.5 1.3-10 1v-5z"/>
  <path d="m280 686v-11h5v5h5v6h-10z"/>
  <path d="m348 676v4h-25v-4h25z"/>
  <path d="m394 676h10v4c-3.1 1-6.5 1.3-10 1v-5z"/>
  <path d="m406 666v10h4v-10c1 3.5 1.3 7.1 1 11h-5c0.3 1.6 0 3-1 4v-4h-10c-7.2 0.3-14.2 0-21-1h31c-0.3-3.5 0-6.9 1-10z"/>
  <path d="m406 666h4v10h-4v-10z"/>
  <path d="m420 676v6h-10c1.4-1 3-1.3 5-1v-5h5z"/>
  <path d="m478 676h5v5h-5v-5z"/>
  <path d="m540 676v5h-5v-5h5z"/>
  <path d="m556 676v6h-5v-6h5z"/>
  <path d="m578 680v-4h4v4h-4z"/>
  <path d="m592 676h10v4h-10v-4z"/>
  <path d="m212 666c1 3.1 1.3 6.5 1 10h5v11h-5c0.3 2 0 3.6-1 5v-5h-10v-1h10v-9c-2 0.3-3.6 0-5-1h5v-10z"/>
  <path d="m214 676h4v9h-4v-9z"/>
  <path d="m240 670v5h4v-5c1 1.8 1.3 3.8 1 6h-5c0.3 1.6 0 3-1 4v-4h-10v-1h10c-0.3-2 0-3.6 1-5z"/>
  <path d="m240 670h4v5h-4v-5z"/>
  <path d="m266 686h-16c1.4-1 3-1.3 5-1h10v-10h6v11h-5z"/>
  <path d="m266 676h4v9h-4v-9z"/>
  <path d="m540 660c1 1.4 1.3 3 1 5v10h4v-10c1 3.5 1.3 7.1 1 11h-5c0.3 1.6 0 3-1 4v-20z"/>
  <path d="m540 666h4v10h-4v-10z"/>
  <path d="m560 676h6-6z"/>
  <path d="m566 680h-4v-4h4v4z"/>
  <path d="m358 670v10h10c2-0.3 3.6 0 5 1h-15v5h-11v-5c-8.8 0.3-17.5 0-26-1h26v-5c1 1.4 1.3 3 1 5h9c-0.3-3.5 0-6.9 1-10z"/>
  <path d="m446 682h-15c0.3 3.5 0 6.9-1 10v-10h-5c1.4-1 3-1.3 5-1v-5h11v5c2-0.3 3.6 0 5 1z"/>
  <path d="m432 676h9v4h-9v-4z"/>
  <path d="m456 670c1 3.1 1.3 6.5 1 10 5.2-0.3 10.2 0 15 1h-15v4h15a65 65 0 0 1-16 1v-5c-2 0.3-3.6 0-5-1h5v-10z"/>
  <path d="m508 676c1 1.4 1.3 3 1 5 1.6-0.3 3 0 4 1 1 1.4 1.3 3 1 5h-6v-5c-3.5 0.3-6.9 0-10-1h10v-5z"/>
  <path d="m592 676v-1h11v5h10v5c2-0.3 3.6 0 5 1h-16v-5c-3.5 0.3-6.9 0-10-1h10v-4h-10z"/>
  <path d="m140 686h-10v-4c3.1-1 6.5-1.3 10-1v5z"/>
  <path d="m170 682h5v4h-5v-4z"/>
  <path d="m254 686c-2-0.3-3.6 0-5 1-1 1-1.3 2.4-1 4h-4v-9c3.1-1 6.5-1.3 10-1v5z"/>
  <path d="m306 682v5h-5v5h-5v-10h10z"/>
  <path d="m316 682v10h-5v-11c2-0.3 3.6 0 5 1z"/>
  <path d="m348 682h9v4h-9v-4z"/>
  <path d="m368 682h5v5h5c1 1.4 1.3 3 1 5h-11v-10z"/>
  <path d="m410 682h5v4h-5v-4z"/>
  <path d="m426 682h5v10h-10v-5h5v-5z"/>
  <path d="m442 682h5v5h-5v-5z"/>
  <path d="m472 682v4h-15v-4h15z"/>
  <path d="m514 682v4h-4v-4h4z"/>
  <path d="m534 680h5c-1.4 1-3 1.3-5 1v5h-5v-6h5z"/>
  <path d="m604 682h9v4h-9v-4z"/>
  <path d="m306 682h-10v10c-1-3.5-1.3-7.1-1-11 3.9-0.3 7.5 0 11 1z"/>
  <path d="m72.5 682c1.4-1 3-1.3 5-1v6h-6c-0.3-2 0-3.6 1-5z"/>
  <path d="m72.5 682h4v4h-4v-4z"/>
  <path d="m130 682v4h10c-3.5 1-7.1 1.3-11 1-0.3-2 0-3.6 1-5z"/>
  <path d="m150 692v-5h-5c1.4-1 3-1.3 5-1v-5h11v6h-10c0.3 2 0 3.6-1 5z"/>
  <path d="m150 682h9v4h-9v-4z"/>
  <path d="m176 682c1 1.4 1.3 3 1 5-2.2 0.3-4.2 0-6-1h5v-4z"/>
  <path d="m374 682c1 1 1.3 2.4 1 4 1.6-0.3 3 0 4 1h-5v-5z"/>
  <path d="m400 686h-16c-0.3-2 0-3.6 1-5 1.4-1 3-1.3 5-1v5c3.5-0.3 6.9 0 10 1z"/>
  <path d="m384 682h4v4h-4v-4z"/>
  <path d="m482 676c1 1.4 1.3 3 1 5h10v6h-11v-5c-2 0.3-3.6 0-5-1h5v-5z"/>
  <path d="m484 682h9v4h-9v-4z"/>
  <path d="m61.5 686h5v5h-5v-5z"/>
  <path d="m87.5 692h-5v-5h5v5z"/>
  <path d="m124 696v5c-1-1.4-1.3-3-1-5h-5v-10h6v10z"/>
  <path d="m144 686h5v5h-5v-5z"/>
  <path d="m202 686h10v5h-10v-5z"/>
  <path d="m234 692h-10v-5h10v5zm21-5h10v5h-10v-5z"/>
  <path d="m276 686h5v5h-5v-5z"/>
  <path d="m328 686h5v5h-5v-5z"/>
  <path d="m342 692h-5v-5h5v5z"/>
  <path d="m390 686h10v5h-10v-5z"/>
  <path d="m446 686h5v5-5h-5z"/>
  <path d="m530 696h-10v-10h5v5h5v5z"/>
  <path d="m540 686h11v5h-11v-5z"/>
  <path d="m556 696v-10h5v10h-5z"/>
  <path d="m588 686h5v10h5v5h-10v-15z"/>
  <path d="m614 686h5v5h-5v-5z"/>
  <path d="m97.5 682c1 1 1.3 2.4 1 4h5v11c-1-1.4-1.3-3-1-5v-5h-4v5c-1-1.4-1.3-3-1-5h-5v-6c2-0.3 3.6 0 5 1z"/>
  <path d="m102 692h-4v-5h4v5z"/>
  <path d="m97.5 682v4h-4v-4h4z"/>
  <path d="m634 692v-5h-4v5a9.6 9.6 0 0 1-1-6h6c0.3 2.2 0 4.2-1 6z"/>
  <path d="m634 692h-4v-5h4v5z"/>
  <path d="m192 692v10c-1-3.1-1.3-6.5-1-10h-11c-0.3-2 0-3.6 1-5 3.5-1 7.1-1.3 11-1v6z"/>
  <path d="m182 686h10v4h-10v-4z"/>
  <path d="m244 682v9h4c-0.3-1.6 0-3 1-4v5h-5c0.3 2 0 3.6-1 5v-5c-0.3-3.5 0-6.9 1-10z"/>
  <path d="m264 686h1v4h9c-0.3-1.6 0-3 1-4v5h-11v-5z"/>
  <path d="m316 682c1 2.8 1.3 5.8 1 9h9c-0.3-1.6 0-3 1-4v15c-1-1.4-1.3-3-1-5v-5h-10v-10z"/>
  <path d="m410 682v4h5c-1.4 1-3 1.3-5 1v5h-6c-0.3-2 0-3.6 1-5 1-1 2.4-1.3 4-1-0.3-1.6 0-3 1-4z"/>
  <path d="m406 686h4v4h-4v-4z"/>
  <path d="m576 686c1 1.4 1.3 3 1 5h-12v-6c3.9-0.3 7.5 0 11 1z"/>
  <path d="m576 686v4h-10v-4h10z"/>
  <path d="m77.5 702h-5c-1-3.1-1.3-6.5-1-10h6v10z"/>
  <path d="m87.5 692h5v5h-5v-5z"/>
  <path d="m104 692h5v5h-5v-5z"/>
  <path d="m144 692v5h-5v-5h5z"/>
  <path d="m170 696h-10v-5h10v5z"/>
  <path d="m192 692h5v10h-5v-10z"/>
  <path d="m224 692v10h5v5h5v5h-10v-5h-5v-15h5z"/>
  <path d="m234 692h10v5h-5v5h-5v-10z"/>
  <path d="m264 692h11v5h-11v-5z"/>
  <path d="m290 696h-5v-5h5v5z"/>
  <path d="m312 692v10h-5v-10h5z"/>
  <path d="m316 692h10v5h-10v-5z"/>
  <path d="m342 692h11v5h-11v-5z"/>
  <path d="m358 692h5v5h-5v-5zm62 0v5h-5v-5h5z"/>
  <path d="m452 692h5v5h-5v-5z"/>
  <path d="m478 696h-10v-5h10v5z"/>
  <path d="m488 702v-10h6v5h-5c0.3 2 0 3.6-1 5z"/>
  <path d="m508 696h-10v-5h10v5z"/>
  <path d="m618 692h5v5-5h-5z"/>
  <path d="m108 696h5v5-5h-5z"/>
  <path d="m124 696h10v5h-10v-5z"/>
  <path d="m154 696v5h-5v-5h5z"/>
  <path d="m170 696h10v5h-10v-5z"/>
  <path d="m212 702h-5v-5h5v5z"/>
  <path d="m260 702h-10v-5h10v5z"/>
  <path d="m276 696h5v5h-5v-5z"/>
  <path d="m290 696h11v5h-11v-5z"/>
  <path d="m328 696h10v5h-10v-5z"/>
  <path d="m368 696h5v5h-5v-5z"/>
  <path d="m394 702h-5v-5h5v5z"/>
  <path d="m416 696v11h-5v-11h5z"/>
  <path d="m446 702h-16v-5h16v5z"/>
  <path d="m478 696h10v5h-10v-5z"/>
  <path d="m508 696h6v5h-6v-5z"/>
  <path d="m530 696h5v10h-5v-10z"/>
  <path d="m556 696v5h-5v-5h5z"/>
  <path d="m614 702h-11v-5h11v5z"/>
  <path d="m624 696h5v5h-5v-5z"/>
  <path d="m640 702v-5h5v5h-5z"/>
  <path d="m104 706h-1v-4h-9v4h-1v-5h11v5z"/>
  <path d="m576 708h-5v-6h11v11h-6v-5z"/>
  <path d="m77.5 702h5v6c-2 0.3-3.6 0-5-1v-5z"/>
  <path d="m102 706h-9v-4h9v4z"/>
  <path d="m114 702h5v5h-5v-5z"/>
  <path d="m134 702h5v11h-5v-11z"/>
  <path d="m208 702v10h-5v-10h5z"/>
  <path d="m338 702h5v5c2-0.3 3.6 0 5 1v4h-10v-10z"/>
  <path d="m364 706h-10c-1-1.4-1.3-3-1-5h11v5z"/>
  <path d="M394.5 701.5h11a9 9 0 0 1-1 5.5c-3.3.5-6.6.7-10 .5v-6Z"/>
  <path d="m420 702h5v5h-5v-5z"/>
  <path d="m446 702h5v5h-5v-5z"/>
  <path d="m494 702h5v5-5h-5z"/>
  <path d="m576 708c-1-1-2.4-1.3-4-1v-4h9v9h-4c0.3-1.6 0-3-1-4z"/>
  <path d="m614 702h5v5h-5v-5z"/>
  <path d="m634 702h5v5h-5v-5z"/>
  <path d="m72.5 702h5v5c-1-1-1.3-2.4-1-4-1.6 0.3-3 0-4-1z"/>
  <path d="m124 702h10v11c-1-3.1-1.3-6.5-1-10-3.2 0.3-6.2 0-9-1z"/>
  <path d="m456 692c1 1.4 1.3 3 1 5v5h4v-5c1 1.4 1.3 3 1 5h5v11h-5c0.3 3.5 0 6.9-1 10v-10h-4v10c-1-3.5-1.3-7.1-1-11h5v-9h-5v-11z"/>
  <path d="m462 702h4v9h-4v-9z"/>
  <path d="m458 696h4v5h-4v-5z"/>
  <path d="m540 702h6v11h-6v-11z"/>
  <path d="m540 702h4v9h-4v-9z"/>
  <path d="m566 706c-1.4 1-3 1.3-5 1v-6h6c0.3 2 0 3.6-1 5z"/>
  <path d="m566 706h-4v-4h4v4z"/>
  <path d="M87.5 707.5c1.4-1 3-1.3 5-1h11c2-.3 3.6 0 5 1h-5v10c-1-3.1-1.3-6.5-1-10h-9v5c-2.2.3-4.2 0-6-1h5v-4h-5Z"/>
  <path d="m154 696c1 1.4 1.3 3 1 5h5v5c3.5-0.3 6.9 0 10 1h-10c-2 0.3-3.6 0-5-1-1-1-1.3-2.4-1-4-2 0.3-3.6 0-5-1h5v-5z"/>
  <path d="m156 706v-4h4v4h-4z"/>
  <path d="m180 696c1 1.4 1.3 3 1 5h5v5h6v5c2-0.3 3.6 0 5 1h-5v10c-1-3.1-1.3-6.5-1-10h-6v-5c-1.6 0.3-3 0-4-1-1-1.4-1.3-3-1-5v-5z"/>
  <path d="m182 706v-4h4v4h-4z"/>
  <path d="m322 706c-1.4 1-3 1.3-5 1h-5c1.4-1 3-1.3 5-1v-5h6c0.3 2 0 3.6-1 5z"/>
  <path d="m322 706h-4v-4h4v4z"/>
  <path d="M353.5 706.5h21v6c-3.9.3-7.5 0-11-1h10v-4h-10c-3.5.3-6.9 0-10-1Zm36 1h-5v10c-1-3.1-1.3-6.5-1-10-1.6.3-3 0-4-1-1-1.4-1.3-3-1-5h6v5c2-.3 3.6 0 5 1Z"/>
  <path d="m380 706v-4h4v4h-4z"/>
  <path d="m494 702v5h5c-1.4 1-3 1.3-5 1h-5v5h-6c1.4-1 3-1.3 5-1v-5h5c-0.3-2 0-3.6 1-5z"/>
  <path d="m524 708h-10v4h10c-3.1 1-6.5 1.3-10 1 0.3 2 0 3.6-1 5v-5h-5c-2 0.3-3.6 0-5-1h5v-4c1 1 1.3 2.4 1 4h4v-5c3.9-0.3 7.5 0 11 1zm110-6v5h5c-1.4 1-3 1.3-5 1v5h-6v-6h5c-0.3-2 0-3.6 1-5z"/>
  <path d="m87.5 708h5v4h-5v-4z"/>
  <path d="m108 708v10h-5v-10h5z"/>
  <path d="m118 708h5v10h-5v-10z"/>
  <path d="m160 708h10v5h-10v-5z"/>
  <path d="m186 708h5v4h-5v-4z"/>
  <path d="m312 708h5v10h-5v-10z"/>
  <path d="m364 708h10v4h-10v-4z"/>
  <path d="m390 708v5h5v5h-10v-10h5z"/>
  <path d="m442 708v4h-5v-4h5z"/>
  <path d="m472 706h5v11h-5v-11z"/>
  <path d="m492 708v9h-9v-4h5v-5h4z"/>
  <path d="m508 708v4h-5v-5c2-0.3 3.6 0 5 1z"/>
  <path d="m524 708v4h-10v-4h10z"/>
  <path d="m560 712h-10v-6h5v5c2-0.3 3.6 0 5 1z"/>
  <path d="m630 708h4v4h-4v-4z"/>
  <path d="m644 712h-5c1.4-1 3-1.3 5-1v-5h5v6h-5z"/>
  <path d="m114 706h11v16c-1-1.4-1.3-3-1-5v-10h-5c-2 0.3-3.6 0-5-1z"/>
  <path d="m150 718v5c-1-1.4-1.3-3-1-5h-5v-11h6v11z"/>
  <path d="m146 708h4v9h-4v-9z"/>
  <path d="m442 708h-5v4h5c-1.4 1-3 1.3-5 1 0.3 3.5 0 6.9-1 10v-10h-4v10c-1-3.5-1.3-7.1-1-11h5v-5c2.2-0.3 4.2 0 6 1z"/>
  <path d="m614 712h-10v5c-1-1.4-1.3-3-1-5h-5v-6h6v5c3.5-0.3 6.9 0 10 1z"/>
  <path d="m598 708h4v4h-4v-4z"/>
  <path d="m66.5 706h6v6h-6v-6z"/>
  <path d="m67.5 708h4v4h-4v-4z"/>
  <path d="m208 702h5c-1 1-2.4 1.3-4 1v9h10c0.3 2.2 0 4.2-1 6v-5h-10c-2 0.3-3.6 0-5-1h5v-10z"/>
  <path d="m250 702v10h25v-4h-10v-6c1 1.4 1.3 3 1 5h10v5h15v-4c1 1 1.3 2.4 1 4h4v-5h6v11h-11v-5h-15v10c-1-3.1-1.3-6.5-1-10h-35v15c-1-1.4-1.3-3-1-5v-10h-16v-5c-1.6 0.3-3 0-4-1h5v5h15v-5h5v-5h6z"/>
  <path d="m296 708h4v9h-9v-4h5v-5z"/>
  <path d="m290 708v4h-10v-5c3.5-0.3 6.9 0 10 1z"/>
  <path d="m260 702h5v6h10v4h-15v-10z"/>
  <path d="m244 702h4v9h-9v-4h5v-5z"/>
  <path d="m348 708c1 1.4 1.3 3 1 5-3.9 0.3-7.5 0-11-1h10v-4z"/>
  <path d="m198 712v10h-5v-10h5z"/>
  <path d="m208 712h10v5h-10v-5z"/>
  <path d="m234 712h5v10h-5v-10z"/>
  <path d="m250 712h10v5h-10v-5z"/>
  <path d="m280 712v10h-5v-10h5z"/>
  <path d="m420 718h-5v-5h5v5z"/>
  <path d="m436 722h-4v-10h4v10z"/>
  <path d="m446 712h5v10h-10v-5h5v-5z"/>
  <path d="m462 722h-4v-10h4v10z"/>
  <path d="m508 712h5v5h-5v-5z"/>
  <path d="m556 712h5v10h-5v-10z"/>
  <path d="m572 712v5h-5v-5h5z"/>
  <path d="m588 712h5v5h5v5h-10v-10z"/>
  <path d="m614 712v5h-10v-5h10z"/>
  <path d="m624 722h-5v-10h5v10z"/>
  <path d="m640 712h5v5h-5v-5z"/>
  <path d="m572 712h-5v5a9.6 9.6 0 0 1-1-6c2.2-0.3 4.2 0 6 1z"/>
  <path d="m660 718v-5h-4v5a9.6 9.6 0 0 1-1-6h6c0.3 2.2 0 4.2-1 6z"/>
  <path d="m660 718h-4v-5h4v5z"/>
  <path d="m180 712c1 1.4 1.3 3 1 5h-5c0.3 2 0 3.6-1 5v-11c2-0.3 3.6 0 5 1z"/>
  <path d="m180 712v4h-4v-4h4z"/>
  <path d="m492 708h1v10h-11v-5h1v4h9v-9z"/>
  <path d="m77.5 718h5v5h-5v-5z"/>
  <path d="m97.5 718v5h-5v-5h5z"/>
  <path d="m108 718h5v5-5h-5zm16 0h10v5h-10v-5z"/>
  <path d="m150 718h10v5h-10v-5z"/>
  <path d="m176 718v5h-5v-5h5z"/>
  <path d="m228 728h-5v-10h5v10z"/>
  <path d="m266 722h-1v-5h6v5h-5z"/>
  <path d="m342 728h-10v-5h-5v-5h10v5h5v5z"/>
  <path d="m352 718h11v5h-5v5h-6v-10z"/>
  <path d="m380 722v5c-1-1.4-1.3-3-1-5h-10v-5h11v5z"/>
  <path d="m394 718h5v5h-5v-5z"/>
  <path d="m410 718h5v10h-5v-10z"/>
  <path d="m420 718h5v5h-5v-5zm83 5h-5v-5h5v5z"/>
  <path d="m530 718h10v5h-10v-5z"/>
  <path d="m546 718h5v10h-5v-10z"/>
  <path d="m572 718h5v5h-5v-5z"/>
  <path d="m640 718v5h-5v-5h5z"/>
  <path d="m666 718h5v5h-5v-5z"/>
  <path d="m66.5 722h6v5h-6v-5z"/>
  <path d="m97.5 718c1 1.4 1.3 3 1 5h5v5h-6v-10z"/>
  <path d="m114 722h5v10h-5v-10z"/>
  <path d="m134 722h10v5h-5v5h-5v-10z"/>
  <path d="m160 722h5v5-5h-5z"/>
  <path d="m198 722h10v5h-10v-5z"/>
  <path d="m240 722h10v10h5v11h5v5h-10v-11h-5c0.3-3.5 0-6.9-1-10h-4v-5z"/>
  <path d="m264 722v10h-5v-5h-5v-5h10z"/>
  <path d="M280.5 722.5h10v5h6a9 9 0 0 1-1 5.5c-3.3.5-6.6.7-10 .5h-5c1.4-1 3-1.3 5-1v-5h-5v-5Z"/>
  <path d="m302 722h10v10h-5v-5h-5v-5z"/>
  <path d="m316 722h5v11h-5v-11z"/>
  <path d="m380 722h10v5h-10v-5z"/>
  <path d="m468 722h10v5h-5v5h-5v-10z"/>
  <path d="m488 722h6v10h-11v-5h5v-5z"/>
  <path d="m504 722h5v10h-5v-10z"/>
  <path d="m514 722h11v5h-11v-5z"/>
  <path d="m560 722h5v5h-5v-5z"/>
  <path d="m576 718c1 1.4 1.3 3 1 5h5v5h-6v-10z"/>
  <path d="m624 722h5v5h-5v-5z"/>
  <path d="m660 722v5h-5v-5h5z"/>
  <path d="m182 722v10h4v-10c1 3.5 1.3 7.1 1 11h-5v10h-5c0.3 2 0 3.6-1 5v-16h5c-0.3-3.5 0-6.9 1-10z"/>
  <path d="m182 722h4v10h-4v-10z"/>
  <path d="m166 728h5v11h-10v-6h5v-5z"/>
  <path d="m228 728h5v10h-5v-10z"/>
  <path d="m342 728h5v10h-5v-10zm26 5h-5v-5h5v5z"/>
  <path d="M420.5 733.5h-5c1.4-1 3-1.3 5-1v-5h11a9 9 0 0 1-1 5.5c-3.3.5-6.6.7-10 .5Z"/>
  <path d="m436 728h5v10h-5v-10z"/>
  <path d="m456 728v10h-10v-5h5v-5h5z"/>
  <path d="m598 732h-5v-5h5v5zm52 0h-10v-5h10v5z"/>
  <path d="m660 722c1 1.4 1.3 3 1 5v10h5a9.6 9.6 0 0 1-6 1v-16z"/>
  <path d="m660 728h5v10h-5v-10zm15 0h5v11h-5v-11z"/>
  <path d="m244 728c1 3.1 1.3 6.5 1 10h5v11c-1-3.1-1.3-6.5-1-10h-5v-11z"/>
  <path d="m264 722h1v10h4v-5h6v6h-5v9h4c-0.3-1.6 0-3 1-4 1.4-1 3-1.3 5-1h5c-1.4 1-3 1.3-5 1v5h-5v15c-1-1-1.3-2.4-1-4-1.6 0.3-3 0-4-1-1-3.1-1.3-6.5-1-10h-5v-10c-2 0.3-3.6 0-5-1h5v-10z"/>
  <path d="m270 728h4v4h-4v-4z"/>
  <path d="m410 718v16c-2 0.3-3.6 0-5-1-1-1.4-1.3-3-1-5h5v-10h-5c-0.3-2 0-3.6 1-5 1.4-1 3-1.3 5-1v6z"/>
  <path d="m406 732v-4h4v4h-4zm0-20h4v4h-4v-4z"/>
  <path d="m436 728v10h5a9.6 9.6 0 0 1-6 1c-0.3-3.9 0-7.5 1-11z"/>
  <path d="m82.5 732h5v6h-5v-6z"/>
  <path d="m104 732h5v5-5h-5z"/>
  <path d="m150 734v9h-4v-9h4zm27 0h4v9h-4v-9z"/>
  <path d="m192 732h5v5-5h-5z"/>
  <path d="m208 734h5v4h-5v-4z"/>
  <path d="m266 734h4v9h-4v-9z"/>
  <path d="m280 734h5v4h-5v-4z"/>
  <path d="m364 738v4h-10v-9h4v5h6z"/>
  <path d="m368 734h10v4h-10v-4z"/>
  <path d="m390 734h10v4h-10v-4z"/>
  <path d="m416 734h5v10h-5v-10z"/>
  <path d="m560 738h-5v-5h5v5z"/>
  <path d="m588 744h-5v-11h5v11z"/>
  <path d="m624 738h-10v-5h10v5z"/>
  <path d="m114 732h16v6h-5v5h-6v-10c-2 0.3-3.6 0-5-1z"/>
  <path d="m124 738c-1 1-1.3 2.4-1 4h-4v-9h9v4c-1.6-0.3-3 0-4 1z"/>
  <path d="m150 732v1h-4v9h4v1h-5v-11h5z"/>
  <path d="m150 728v5h4v-5c1 1.8 1.3 3.8 1 6h-5v9c3.5-0.3 6.9 0 10 1h-10v5c-1-1.4-1.3-3-1-5v-11c-0.3-2 0-3.6 1-5z"/>
  <path d="m150 728h4v5h-4v-5z"/>
  <path d="m214 728v5h4v-5c1 1.8 1.3 3.8 1 6h-5v5h-11c1.4-1 3-1.3 5-1h5v-4h-5c1.4-1 3-1.3 5-1-0.3-2 0-3.6 1-5z"/>
  <path d="m214 728h4v5h-4v-5z"/>
  <path d="m364 738h-6v-5h-4v9h10c-3.1 1-6.5 1.3-10 1 0.3 2 0 3.6-1 5v-5h-4v5a9.6 9.6 0 0 1-1-6h5v-10h6v5c2-0.3 3.6 0 5 1z"/>
  <path d="m364 732h16v5h5v6h-5v15c-1-1.4-1.3-3-1-5v-10h-4v10c-1-3.5-1.3-7.1-1-11h5v-4c-3.5 0.3-6.9 0-10-1h10v-4h-10c-2 0.3-3.6 0-5-1z"/>
  <path d="m104 732v5h5a9.6 9.6 0 0 1-6 1c-0.3-2.2 0-4.2 1-6z"/>
  <path d="m192 732v5h5c-1.4 1-3 1.3-5 1v15c-1-1.4-1.3-3-1-5v-10h-5c1.4-1 3-1.3 5-1-0.3-2 0-3.6 1-5z"/>
  <path d="m348 728c1 3.5 1.3 7.1 1 11h-16c3.1-1 6.5-1.3 10-1h5v-10z"/>
  <path d="m390 734c3.5-1 7.1-1.3 11-1v5c3.5-0.3 6.9 0 10 1h-11c-3.5 0.3-6.9 0-10-1h10v-4h-10z"/>
  <path d="m456 728c1 3.5 1.3 7.1 1 11-3.9 0.3-7.5 0-11-1h10v-10z"/>
  <path d="m550 744h-11v-5h-5v-6h6v5h10v6z"/>
  <path d="m536 734h4v4h-4v-4z"/>
  <path d="m572 732h6v6h-6v-6z"/>
  <path d="m572 734h4v4h-4v-4z"/>
  <path d="m592 732h16v6h-11v-5c-2 0.3-3.6 0-5-1z"/>
  <path d="m598 734h9v4h-9v-4z"/>
  <path d="m640 732h10c-3.1 1-6.5 1.3-10 1v5h-6v-6h6z"/>
  <path d="m634 734h4v4h-4v-4z"/>
  <path d="m140 748h-10v-5h5v-5h5v10z"/>
  <path d="m186 738h5v10h-5v-10z"/>
  <path d="m202 738h5v10h-5v-10z"/>
  <path d="m224 748h-5v-11h5v11z"/>
  <path d="m238 738v10h-4v-10h4z"/>
  <path d="m276 738h4v4h-4v-4z"/>
  <path d="m316 744h-10v-5h10v5z"/>
  <path d="m326 748h-10v-5h5c1-1.4 1.3-3 1-5h4v10zm6-10h10v10h-5v-5h-5v-5z"/>
  <path d="m380 738h4v4h-4v-4z"/>
  <path d="m478 738h5v6h-5v-6z"/>
  <path d="m540 738h9v4h-9v-4zm25 0v4h-4v-4h4z"/>
  <path d="m644 738c3.4-0.2 6.7 0 10 0.5a9 9 0 0 1 1 5.5h-11v-6z"/>
  <path d="m228 738h5c2-0.3 3.6 0 5 1h-4v10c-1-3.1-1.3-6.5-1-10-2 0.3-3.6 0-5-1z"/>
  <path d="m430 738c1 1.4 1.3 3 1 5h-6v-6c2-0.3 3.6 0 5 1z"/>
  <path d="m430 738v4h-4v-4h4z"/>
  <path d="m614 738h10c2-0.3 3.6 0 5 1 1 1.4 1.3 3 1 5h-6v-5c-3.5 0.3-6.9 0-10-1z"/>
  <path d="m628 738v4h-4v-4h4z"/>
  <path d="m326 748v-10h-4c0.3 2 0 3.6-1 5v-6h6c0.3 3.9 0 7.5-1 11z"/>
  <path d="m72.5 738c1.4-1 3-1.3 5-1v6h-6c-0.3-2 0-3.6 1-5z"/>
  <path d="m72.5 738h4v4h-4v-4z"/>
  <path d="m97.5 738c1 1.4 1.3 3 1 5h-6v-6c2-0.3 3.6 0 5 1z"/>
  <path d="m97.5 738v4h-4v-4h4z"/>
  <path d="m400 738h1v4h9v-4h1v5h-11v-5z"/>
  <path d="m400 738h9v4h-9v-4z"/>
  <path d="m462 738c1.4-1 3-1.3 5-1v6h-6c-0.3-2 0-3.6 1-5z"/>
  <path d="m462 738h4v4h-4v-4z"/>
  <path d="m556 738h5c2-0.3 3.6 0 5 1h-4v4h4v1h-5v-5c-2 0.3-3.6 0-5-1z"/>
  <path d="m108 744h5v5h-5v-5z"/>
  <path d="m160 744v10h-5v-5h-5v-5h10z"/>
  <path d="m176 744v5h-10v-5h10z"/>
  <path d="m270 754v-10h4v10h-4z"/>
  <path d="m286 744h16v5h5v5h-11v-5h-10v-5z"/>
  <path d="m352 748h-4v-5h4v5z"/>
  <path d="m378 754h-4v-10h4v10z"/>
  <path d="m494 744h10v5h-10v-5z"/>
  <path d="m520 748h-11v-5h11v5z"/>
  <path d="m534 748h-10v-5h10v5zm16-5h5v10h-5v-10z"/>
  <path d="m566 744h6v10h-6v-10z"/>
  <path d="m588 744h10v5h-10v-5z"/>
  <path d="m608 744h5v5h-5v-5z"/>
  <path d="m182 748h4v10h-5v5h-4v-9h5v-6z"/>
  <path d="m238 738c1 3.1 1.3 6.5 1 10h5v5h-6v-15z"/>
  <path d="m442 754h-10c-1-1.4-1.3-3-1-5h11v5z"/>
  <path d="m488 758h-5v5h-5v-10h5v-5h6c0.3 3.5 0 6.9-1 10z"/>
  <path d="m61.5 748h5v5h-5v-5z"/>
  <path d="m87.5 748h5v5h-5v-5z"/>
  <path d="m140 748h5v5h5v10h-5v-5h-5v-10z"/>
  <path d="m192 748h5v5h-5v-5z"/>
  <path d="m208 748h5v5h-5v-5z"/>
  <path d="m224 748h5v5-5h-5zm36 0h5v10h-5v-10z"/>
  <path d="m400 754h-5v-5h5v5z"/>
  <path d="m416 754h-5v-5h5v5z"/>
  <path d="m456 748v5h-10v-5h10z"/>
  <path d="m520 748h5v5h-5v-5z"/>
  <path d="m534 748h5v5h-5v-5z"/>
  <path d="m478 754h-10v-5h10v5z"/>
  <path d="m77.5 754h5v5h-5v-5z"/>
  <path d="m97.5 754h6v5h-6v-5z"/>
  <path d="m114 754h5v5h-5v-5zm47 0h10v5h-10v-5z"/>
  <path d="m198 754h5v5h5v5h-10v-10zm31 0h5v5h-5v-5z"/>
  <path d="m250 754h5v11h-5v-11z"/>
  <path d="m276 754h10v10h-5v-5h-5v-5z"/>
  <path d="m338 764h-10c3.1-1 6.5-1.3 10-1v-10h5v11h-5z"/>
  <path d="m368 764h-5v-10h5v10z"/>
  <path d="m380 754h10v5h-10v-5z"/>
  <path d="m400 754h5v10h-5v-10z"/>
  <path d="m416 754h10v5h-10v-5z"/>
  <path d="m442 754h5v11c-2 0.3-3.6 0-5-1v-10z"/>
  <path d="m458 754h5v5c1 1 2.4 1.3 4 1v4h-9v-10z"/>
  <path d="m498 758v-5h10v5h-10z"/>
  <path d="m124 754v10h4v-10c1 3.5 1.3 7.1 1 11h-6c-0.3-3.9 0-7.5 1-11z"/>
  <path d="m124 754h4v10h-4v-10z"/>
  <path d="m182 748v6h-5v9h-1v-10h5c-0.3-2 0-3.6 1-5z"/>
  <path d="m432 754h10v10c-1-2.8-1.3-5.8-1-9-3.2 0.3-6.2 0-9-1z"/>
  <path d="m358 770h-6v-5h-5v-6h11v11z"/>
  <path d="m234 760h5v4h-5v-4z"/>
  <path d="m270 764c1 1 2.4 1.3 4 1-0.3 2 0 3.6 1 5h5v5h-11v-5c-1-1-2.4-1.3-4-1v-9h4c-0.3 1.6 0 3 1 4z"/>
  <path d="m322 760v9h-4v-9h4z"/>
  <path d="m348 760h9v9h-4v-5h-5v-4z"/>
  <path d="m394 760v10h-5v-10h5z"/>
  <path d="m498 758v6h-5v-6h5z"/>
  <path d="m264 748c1 3.1 1.3 6.5 1 10h5v5c-1-1-1.3-2.4-1-4h-4v9c1.6-0.3 3 0 4 1h-5v-10c-2 0.3-3.6 0-5-1h5v-10z"/>
  <path d="m322 758v1h-4v9h4v1h-5v-11h5z"/>
  <path d="m322 758c1 3.1 1.3 6.5 1 10h4c-0.3-1.6 0-3 1-4v4h10c3.5-0.3 6.9 0 10 1h-20c0.3 2 0 3.6-1 5v-5h-4v5c-1-1.4-1.3-3-1-5v-11z"/>
  <path d="m380 758h10c2-0.3 3.6 0 5 1h-5v10h-5c1-1 2.4-1.3 4-1v-9c-3.2 0.3-6.2 0-9-1z"/>
  <path d="m416 758h16v5h5v6h-11v-10c-3.5 0.3-6.9 0-10-1z"/>
  <path d="m432 764c1 1 2.4 1.3 4 1v4h-9v-9h4c-0.3 1.6 0 3 1 4z"/>
  <path d="m488 758c-1 1-2.4 1.3-4 1v5c-2.2 0.3-4.2 0-6-1h5v-5h5z"/>
  <path d="m150 754c1 3.1 1.3 6.5 1 10 3.5-0.3 6.9 0 10 1h-11c-2 0.3-3.6 0-5-1h5v-10z"/>
  <path d="m186 738v21h-5v5h-5v5h-27v-5h1v4h9v-4h1v4h15v-4h-5c1.4-1 3-1.3 5-1h5v-5h5v-10c-0.3-3.5 0-6.9 1-10z"/>
  <path d="m186 764c3.5-1 7.1-1.3 11-1h10c2-0.3 3.6 0 5 1h-15v5h-11v-1h10v-4h-10z"/>
  <path d="m212 748c1 1.4 1.3 3 1 5v5h4v-5c1 1.4 1.3 3 1 5h5v5c2-0.3 3.6 0 5 1h-11v-5h-5v-11z"/>
  <path d="m218 760h4v4h-4v-4z"/>
  <path d="m214 754h4v5h-4v-5z"/>
  <path d="m290 774v-10h-5c-2 0.3-3.6 0-5-1h10v-5h6v6h-5c0.3 3.5 0 6.9-1 10z"/>
  <path d="m292 760h4v4h-4v-4z"/>
  <path d="m404 754c1 3.1 1.3 6.5 1 10h10v6h-11v-5c-2 0.3-3.6 0-5-1h5v-10z"/>
  <path d="m456 748c1 1.4 1.3 3 1 5v10h9v-4c-1.6 0.3-3 0-4-1h5v6h-11v-16z"/>
  <path d="m134 764h5v6h-5v-6z"/>
  <path d="m150 764h9v4h-9v-4z"/>
  <path d="m170 764h5v4h-5v-4z"/>
  <path d="m186 764h10v4h-10v-4z"/>
  <path d="m208 764h5c1 3.1 1.3 6.5 1 10v5c-1-1.4-1.3-3-1-5h-5v-10z"/>
  <path d="m224 764h5v5h-5v-5z"/>
  <path d="m286 764h5v10h-5v-10z"/>
  <path d="m312 768h-10v-4c3.1-1 6.5-1.3 10-1v5z"/>
  <path d="m328 764h10v4h-10v-4z"/>
  <path d="m364 764h5c3.4-0.2 6.7 0 10 0.5a9 9 0 0 1 1 5.5h-11v-5c-2 0.3-3.6 0-5-1z"/>
  <path d="m406 764h9v4h-9v-4z"/>
  <path d="m640 764h5v6h-5v-6z"/>
  <path d="m702 764h5v6h-5v-6z"/>
  <path d="m270 764h5v6c-1-1.4-1.3-3-1-5-1.6 0.3-3 0-4-1z"/>
  <path d="m72.5 764c1.4-1 3-1.3 5-1v6h-6c-0.3-2 0-3.6 1-5z"/>
  <path d="m72.5 764h4v4h-4v-4z"/>
  <path d="m104 764c1.4-1 3-1.3 5-1v6h-6c-0.3-2 0-3.6 1-5z"/>
  <path d="m104 764h4v4h-4v-4z"/>
  <path d="m186 764v5h-5c1-1 2.4-1.3 4-1-0.3-1.6 0-3 1-4z"/>
  <path d="m604 764c1.4-1 3-1.3 5-1v6h-6c-0.3-2 0-3.6 1-5z"/>
  <path d="m604 764h4v4h-4v-4z"/>
  <path d="m87.5 770h5v5h-5v-5zm26 0h5v5h-5v-5z"/>
  <path d="m160 770h10v5h-5v5h-5v-10z"/>
  <path d="m182 770h5v5h-5v-5z"/>
  <path d="m228 770h5v5h-5v-5z"/>
  <path d="m250 770v10h-5v-10h5z"/>
  <path d="m260 774h-5v-5h5v5z"/>
  <path d="m296 770h4v10h-5c-0.3-3.5 0-6.9 1-10z"/>
  <path d="m326 774h-4v-5h4v5z"/>
  <path d="m338 770h10v5h-10v-5z"/>
  <path d="m358 770h5v5h-5v-5zm26 0h5v5h-5v-5zm140 0h5v5h-5v-5z"/>
  <path d="m660 770h6v5h-6v-5z"/>
  <path d="m676 770h5v5h-5v-5z"/>
  <path d="m686 770h11v5h-11v-5z"/>
  <path d="m712 770h6v5h-6v-5z"/>
  <path d="m302 764v4h10c-3.1 1-6.5 1.3-10 1 0.3 3.5 0 6.9-1 10v-10h-4c1-1 2.4-1.3 4-1-0.3-1.6 0-3 1-4z"/>
  <path d="M228.5 758.5h11v5h5v5c2-.3 3.6 0 5 1h-5v16c-2.2.3-4.2 0-6-1h5v-15h-5v-5c-2 .3-3.6 0-5-1h5v-4h-5c-2 .3-3.6 0-5-1Z"/>
  <path d="m240 764h4v4h-4v-4z"/>
  <path d="m97.5 774h6v5h-6v-5zm26 0h6v5h-6v-5z"/>
  <path d="m180 774v10h-5v5h-5v-10h5v-5h5z"/>
  <path d="m202 784h-5v-5h-5v-5h10v10z"/>
  <path d="m214 774h10v5h-10v-5z"/>
  <path d="m260 774h5v10h-5v-10z"/>
  <path d="m598 780v-5h6v5h-6z"/>
  <path d="m628 774v5h-5v-5h5z"/>
  <path d="m144 780h-5v-5h5v5z"/>
  <path d="m312 774h5v5h-5v-5z"/>
  <path d="m550 774h5v5h-5v-5z"/>
  <path d="m614 774h5v10h-5v-10z"/>
  <path d="m644 774h10v5h-10v-5z"/>
  <path d="m82.5 780h5v5h-5v-5z"/>
  <path d="m108 780h5v5h-5v-5z"/>
  <path d="m144 780h5v5h-5v-5z"/>
  <path d="m224 780h5v10h-5v-10z"/>
  <path d="m244 780v5h-5v-5h5z"/>
  <path d="m276 780h10v5h-10v-5z"/>
  <path d="m578 780h5v5-5h-5z"/>
  <path d="m598 780v5h-5v-5h5z"/>
  <path d="m630 780h10v5h-10v-5zm36 0h5v5h-5v-5z"/>
  <path d="m680 780h6v5h-6v-5z"/>
  <path d="m202 786v-1h11c0.3 2 0 3.6-1 5v-4h-10z"/>
  <path d="m628 774c1 1.4 1.3 3 1 5v5h10c-3.5 1-7.1 1.3-11 1v-11z"/>
  <path d="m140 790h-5v-5h5v5z"/>
  <path d="m202 786h10v4h-5v6h-5v-10z"/>
  <path d="m254 790h-5v-5h5v5z"/>
  <path d="m420 784h5v6h-5v-6z"/>
  <path d="m472 784h5v6h-5v-6z"/>
  <path d="m534 790h-10v-6h5v5c2-0.3 3.6 0 5 1z"/>
  <path d="m560 790h-5v-5h5v5z"/>
  <path d="m592 784v6h-10c1.4-1 3-1.3 5-1v-5h5z"/>
  <path d="m71.5 790c-1.4 1-3 1.3-5 1v-6h6c0.3 2 0 3.6-1 5z"/>
  <path d="m71.5 790h-4v-4h4v4z"/>
  <path d="m124 790c-1.4 1-3 1.3-5 1v-6h6c0.3 2 0 3.6-1 5z"/>
  <path d="m124 790h-4v-4h4v4z"/>
  <path d="m156 790c-1-1.4-1.3-3-1-5h6v6c-2 0.3-3.6 0-5-1z"/>
  <path d="m156 790v-4h4v4h-4z"/>
  <path d="m182 770v16h-5c0.3 1.6 0 3-1 4v-5h5v-10c-0.3-2 0-3.6 1-5z"/>
  <path d="m264 774c1 3.1 1.3 6.5 1 10h5v5h5v6h-6v-5h-5v-16z"/>
  <path d="m266 786h4v4h-4v-4z"/>
  <path d="m578 780v5h5c-1.4 1-3 1.3-5 1 0.3 1.6 0 3-1 4-1.4 1-3 1.3-5 1v-6h5c-0.3-2 0-3.6 1-5z"/>
  <path d="m576 790h-4v-4h4v4z"/>
  <path d="m604 790c-1-1.4-1.3-3-1-5h6v6c-2 0.3-3.6 0-5-1z"/>
  <path d="m604 790v-4h4v4h-4z"/>
  <path d="m234 790c3.5-1 7.1-1.3 11-1v5h5v11h-1v-10h-4v10c-1-3.1-1.3-6.5-1-10h-15c1.4-1 3-1.3 5-1h10v-4h-10z"/>
  <path d="m540 784h6v5h5v6h-6v-5h-5v-6z"/>
  <path d="m540 786h4v4h-4v-4z"/>
  <path d="m134 790h10v6h-5v-5c-2 0.3-3.6 0-5-1zm36 0h5c-1.4 1-3 1.3-5 1v5h-5v-6h5z"/>
  <path d="m234 790h10v4h-10v-4z"/>
  <path d="m250 790h10v6h-5v-5c-2 0.3-3.6 0-5-1z"/>
  <path d="m270 790h4v4h-4v-4z"/>
  <path d="m508 794h-10v-5h10v5z"/>
  <path d="m514 790h4v10h-5c-0.3-3.5 0-6.9 1-10z"/>
  <path d="m530 790h5v10h-5v-10z"/>
  <path d="m546 790h4v4h-4v-4z"/>
  <path d="m582 790h5v4h-5v-4z"/>
  <path d="m514 790c1.4-1 3-1.3 5-1v16c-1-1.4-1.3-3-1-5v-10h-4z"/>
  <path d="m97.5 790c1 1.4 1.3 3 1 5h-6v-6c2-0.3 3.6 0 5 1z"/>
  <path d="m97.5 790v4h-4v-4h4z"/>
  <path d="m202 794v1h-21v5h-6v-6h5c-0.3-1.6 0-3 1-4s2.4-1.3 4-1v-5h7v10h10z"/>
  <path d="m182 790h5v-5h5v9h-10v-4z"/>
  <path d="m404 790c1 1.4 1.3 3 1 5h-6v-6c2-0.3 3.6 0 5 1z"/>
  <path d="m404 790v4h-4v-4h4z"/>
  <path d="m452 796c3.5-1 7.1-1.3 11-1 0.3 2.2 0 4.2-1 6v-5h-10z"/>
  <path d="m488 790c1 1 1.3 2.4 1 4h20c-3.1 1-6.5 1.3-10 1h-10v5c-1-1.4-1.3-3-1-5h-4c0.3 3.5 0 6.9-1 10v-10h-5c1.4-1 3-1.3 5-1v-5c2-0.3 3.6 0 5 1z"/>
  <path d="m488 790v4h-4v-4h4z"/>
  <path d="m556 790h5c2-0.3 3.6 0 5 1 1 1.4 1.3 3 1 5h-6v-5c-2 0.3-3.6 0-5-1z"/>
  <path d="m566 790v4h-4v-4h4z"/>
  <path d="m582 790v4h5a9.6 9.6 0 0 1-6 1c-0.3-2 0-3.6 1-5z"/>
  <path d="m82.5 796h5v5h-5v-5zm26 0h5v5h-5v-5z"/>
  <path d="m176 796h4v4h-4v-4z"/>
  <path d="m192 796h10v5h-10v-5z"/>
  <path d="m218 806h-10v-5h5c1-1.4 1.3-3 1-5h4v10z"/>
  <path d="m228 796h5v10h-5v-10z"/>
  <path d="m248 806h-4v-10h4v10z"/>
  <path d="m260 796h5v5-5h-5zm42 0h5v5h-5v-5z"/>
  <path d="m326 796h6v5h-6v-5zm26 0h6v5h-6v-5z"/>
  <path d="m420 800h-5v-5h5v5z"/>
  <path d="m430 796h11v5h-11v-5z"/>
  <path d="m452 796h10v5h-10v-5z"/>
  <path d="m468 796h5v10h-5v-10z"/>
  <path d="m478 796h5v10h-5v-10z"/>
  <path d="m498 796v5h-10v-5h10z"/>
  <path d="m128 800v-5h-4v5a9.6 9.6 0 0 1-1-6h6c0.3 2.2 0 4.2-1 6z"/>
  <path d="m128 800h-4v-5h4v5z"/>
  <path d="m154 800v-5h-4v5a9.6 9.6 0 0 1-1-6h6c0.3 2.2 0 4.2-1 6z"/>
  <path d="m154 800h-4v-5h4v5z"/>
  <path d="m378 796c1 1.4 1.3 3 1 5h-6v-6c2-0.3 3.6 0 5 1z"/>
  <path d="m378 796v4h-4v-4h4z"/>
  <path d="m66.5 800h6v5h-6v-5z"/>
  <path d="m134 800h5v5h-5v-5zm26 0h5v5h-5v-5z"/>
  <path d="m192 800v10h-6v-10h6z"/>
  <path d="m264 800h6v5h-6v-5z"/>
  <path d="m286 800h5v5h-5v-5zm114 5h-5v-5h5v5z"/>
  <path d="m420 800h5v10h-5v-10z"/>
  <path d="m452 800v5h-5v-5h5z"/>
  <path d="m504 800h5v5h-5v-5z"/>
  <path d="m520 800h5v5h-5v-5z"/>
  <path d="m97.5 806h6v5h-6v-5z"/>
  <path d="m114 806h5v5h-5v-5z"/>
  <path d="m144 806h5v5h-5v-5z"/>
  <path d="m170 806h5v11h-5v-11z"/>
  <path d="m208 806v5h-5v5h-5v-10h10z"/>
  <path d="m218 806h5v5h5v5h-10v-10z"/>
  <path d="m234 806h5v5h5v10h-4c0.3-1.6 0-3-1-4h-5v-11z"/>
  <path d="m250 806h10v5h-10v-5z"/>
  <path d="m286 816h-10v-11h5v10c2-0.3 3.6 0 5 1z"/>
  <path d="m348 806v5h-5v-5h5z"/>
  <path d="m364 810h-5v-5h5v5z"/>
  <path d="m364 810h5v-5h5v10h-10v-5zm21-5h5v5h5v5h-10v-10zm15 0h10v5h-10v-5z"/>
  <path d="m446 806v5h-10v-5h10z"/>
  <path d="m602 806h6v5h-6v-5z"/>
  <path d="m462 816c-1-1.4-1.3-3-1-5h6v6c-2 0.3-3.6 0-5-1z"/>
  <path d="m87.5 810h5v6h-5v-6z"/>
  <path d="m260 810h5v6h5v10h-5v-5h-5v-11z"/>
  <path d="m296 810v5h-5v-5h5z"/>
  <path d="m338 812v4h-10v-4h10z"/>
  <path d="m410 810h5v6c-2 0.3-3.6 0-5-1v-5z"/>
  <path d="m462 816v-4h4v4h-4z"/>
  <path d="m588 810h5v5h-5v-5z"/>
  <path d="m124 810h6v6h-6v-6z"/>
  <path d="m124 812h4v4h-4v-4z"/>
  <path d="m154 810h6v11h-6v-11z"/>
  <path d="m156 812h4v9h-4v-9z"/>
  <path d="m348 806c1 1.4 1.3 3 1 5h5v11h-6v-16z"/>
  <path d="m348 812h4v9h-4v-9z"/>
  <path d="m410 806c1 1.4 1.3 3 1 5v5c-1-1-1.3-2.4-1-4-3.5 0.3-6.9 0-10-1h10v-5z"/>
  <path d="m224 790h5c-1.4 1-3 1.3-5 1v5h-5v20h10c-3.1 1-6.5 1.3-10 1v5h-5c0.3 2 0 3.6-1 5v-6h5v-4h-10c3.1-1 6.5-1.3 10-1v-20h-4c0.3 2 0 3.6-1 5v-6h5c-0.3-1.6 0-3 1-4 1.4-1 3-1.3 5-1z"/>
  <path d="m218 790h4v4h-4v-4z"/>
  <path d="m296 810c1 1.4 1.3 3 1 5h30v-5c3.9-0.3 7.5 0 11 1h-10v4h10c2-0.3 3.6 0 5 1h-15v5h-11v-5h-20v10c0.3 2 0 3.6-1 5v-15c-2 0.3-3.6 0-5-1h5v-5z"/>
  <path d="m316 816h-10v-5h10v5z"/>
  <path d="m82.5 820h-5v-4c1.4-1 3-1.3 5-1v5z"/>
  <path d="m108 816h5v6h-5v-6z"/>
  <path d="m134 816h5v6h-5v-6z"/>
  <path d="m208 816h10v4h-5v6h-5v-10z"/>
  <path d="m254 826h-5v-11h5v11z"/>
  <path d="m280 816h5v10h-5v-10z"/>
  <path d="m306 816v5h-5v5h-5v-10h10z"/>
  <path d="m318 816h9v4h-9v-4z"/>
  <path d="m338 816h5v10h-5v-10z"/>
  <path d="m264 810c1 1.4 1.3 3 1 5h5v16c-1-1.4-1.3-3-1-5v-10h-5v-6z"/>
  <path d="m384 806v10h10c-3.1 1-6.5 1.3-10 1v5h-6v-6h5c-0.3-3.5 0-6.9 1-10z"/>
  <path d="m380 816h4v4h-4v-4z"/>
  <path d="m540 816h6v6h-6v-6z"/>
  <path d="m540 816h4v4h-4v-4z"/>
  <path d="m77.5 816v4h5a9.6 9.6 0 0 1-6 1c-0.3-2 0-3.6 1-5z"/>
  <path d="m180 816h6v6h-6v-6z"/>
  <path d="m182 816h4v4h-4v-4z"/>
  <path d="m244 810c1 3.5 1.3 7.1 1 11h-6v-5c1 1 1.3 2.4 1 4h4v-10z"/>
  <path d="m572 816h6v6h-6v-6z"/>
  <path d="m572 816h4v4h-4v-4z"/>
  <path d="m166 822h5v5h-5v-5z"/>
  <path d="m192 820h5v11h-5v-11z"/>
  <path d="m234 826h-10v-5h10v5z"/>
  <path d="m358 822h5v5h-5v-5z"/>
  <path d="m530 822h5v5h-5v-5z"/>
  <path d="m150 822c1 1.4 1.3 3 1 5h-6v-6c2-0.3 3.6 0 5 1z"/>
  <path d="m150 822v4h-4v-4h4z"/>
  <path d="m124 822c1 1.4 1.3 3 1 5h-6v-6c2-0.3 3.6 0 5 1z"/>
  <path d="m124 822v4h-4v-4h4z"/>
  <path d="m488 822c1.4-1 3-1.3 5-1v6h-6c-0.3-2 0-3.6 1-5z"/>
  <path d="m488 822h4v4h-4v-4z"/>
  <path d="m92.5 826h6v5h-6v-5z"/>
  <path d="m130 826h5v5h-5v-5z"/>
  <path d="m182 832v5c-1-1.4-1.3-3-1-5h-5v-5h6v5z"/>
  <path d="m224 826v10h-5v-10h5z"/>
  <path d="m234 826h10v5h-5v5h-5v-10zm21 0h5v5-5h-5z"/>
  <path d="m270 826h10v5h-10v-5z"/>
  <path d="m296 826v5h-5v-5h5z"/>
  <path d="m312 826h5v5h-5v-5z"/>
  <path d="m328 826h5v5h-5v-5z"/>
  <path d="m430 826h6v5h-6v-5z"/>
  <path d="m446 826h5v5h-5v-5z"/>
  <path d="m104 832h5v5h-5v-5z"/>
  <path d="m140 832h5v5h-5v-5z"/>
  <path d="m154 832h6v11a9 9 0 0 1-5.5-1c-0.5-3.3-0.7-6.6-0.5-10z"/>
  <path d="m182 832h5v5h-5v-5z"/>
  <path d="m208 842h-5v-10h5v10z"/>
  <path d="m244 826c1 1.4 1.3 3 1 5h5v5h-6v-10z"/>
  <path d="m260 832h5v5h-5v-5z"/>
  <path d="m374 832h6v5h-6v-5z"/>
  <path d="m400 832h6v5h-6v-5z"/>
  <path d="m87.5 836h5v5h-5v-5z"/>
  <path d="m114 836h5v5h-5v-5z"/>
  <path d="m170 836h5v6h-5v-6z"/>
  <path d="m224 836h10v5h-5v5h-5v-10z"/>
  <path d="m306 836h5v5h-5v-5z"/>
  <path d="m472 836h5v5h-5v-5z"/>
  <path d="m504 836h5v5h-5v-5z"/>
  <path d="m640 836h5v5h-5v-5z"/>
  <path d="m218 836h5v10h5a9.6 9.6 0 0 1-6 1v-10c-1.6 0.3-3 0-4-1z"/>
  <path d="m566 842c-1.4 1-3 1.3-5 1v-6h6c0.3 2 0 3.6-1 5z"/>
  <path d="m566 842h-4v-4h4v4z"/>
  <path d="m202 842h11v6c-2.2 0.3-4.2 0-6-1h5v-4h-5c-2 0.3-3.6 0-5-1z"/>
  <path d="m150 842v5h-5v-5h5z"/>
  <path d="m208 842h5v4h-5v-4z"/>
  <path d="m348 842v5h-5v-5h5z"/>
  <path d="m374 842v5h-5v-5h5z"/>
  <path d="m420 842h5v6h-5v-6z"/>
  <path d="m498 842v4h-5v-4h5z"/>
  <path d="m498 842h-5v4h5a9.6 9.6 0 0 1-6 1v-6c2.2-0.3 4.2 0 6 1z"/>
  <path d="m124 842h6v6h-6v-6z"/>
  <path d="m124 842h4v4h-4v-4z"/>
  <path d="m150 842c1 1.8 1.3 3.8 1 6-2.2 0.3-4.2 0-6-1h5v-5z"/>
  <path d="m186 842h7v6h-7v-6z"/>
  <path d="m186 842h5v4h-5v-4z"/>
  <path d="m238 852v-5h-5c1.4-1 3-1.3 5-1v-5h6v6h-5c0.3 2 0 3.6-1 5z"/>
  <path d="m240 842h4v4h-4v-4z"/>
  <path d="m264 842h6v6h-6v-6z"/>
  <path d="m266 842h4v4h-4v-4z"/>
  <path d="m348 842c1 1.8 1.3 3.8 1 6-2.2 0.3-4.2 0-6-1h5v-5z"/>
  <path d="m374 842c1 1.8 1.3 3.8 1 6-2.2 0.3-4.2 0-6-1h5v-5z"/>
  <path d="m534 842h6v6h-6v-6z"/>
  <path d="m536 842h4v4h-4v-4z"/>
  <path d="m108 848h5v5h-5v-5z"/>
  <path d="m134 848h5v5h-5v-5z"/>
  <path d="m160 846h5v6h-5v-6z"/>
  <path d="m198 848h5v5h-5v-5z"/>
  <path d="m234 848h5v5h-5v-5z"/>
  <path d="m286 846h5v6h-5v-6z"/>
  <path d="m628 848c1 1.4 1.3 3 1 5h-6v-6c2-0.3 3.6 0 5 1z"/>
  <path d="m628 848v4h-4v-4h4z"/>
  <path d="m180 848c1 1.4 1.3 3 1 5h-6v-6c2-0.3 3.6 0 5 1z"/>
  <path d="m180 848v4h-4v-4h4z"/>
  <path d="m208 852c3.5-1 7.1-1.3 11-1 0.3 2.2 0 4.2-1 6v-5h-10z"/>
  <path d="m602 848c1 1.4 1.3 3 1 5h-6v-6c2-0.3 3.6 0 5 1z"/>
  <path d="m602 848v4h-4v-4h4z"/>
  <path d="m150 852h6v5h-6v-5z"/>
  <path d="m192 852v5h-5v-5h5z"/>
  <path d="m208 852h10v5h-10v-5z"/>
  <path d="m234 852v5h-5v-5h5zm21 0h5v5h-5v-5z"/>
  <path d="m332 852h5v5h-5v-5z"/>
  <path d="m456 852h6v5h-6v-5z"/>
  <path d="m588 852h5v5h-5v-5z"/>
  <path d="m322 858h6v5h-6v-5zm83 0h6v5h-6v-5z"/>
  <path d="m114 858h5v5h-5v-5z"/>
  <path d="m130 858h5v5h-5v-5z"/>
  <path d="m192 852c1 1.4 1.3 3 1 5h5v5h-6v-10z"/>
  <path d="m228 858v10h-5v-10h5z"/>
  <path d="m302 858h5v5h-5v-5zm218 0h5v5h-5v-5z"/>
  <path d="m550 858h5v5h-5v-5z"/>
  <path d="m166 858h5v5h-5v-5z"/>
  <path d="m390 858h5v5h-5v-5z"/>
  <path d="m144 862h5v5h-5v-5z"/>
  <path d="m176 862h6v5h-6v-5z"/>
  <path d="m202 862h5v5h-5v-5z"/>
  <path d="m270 862h6v5h-6v-5z"/>
  <path d="m368 862h5v5h-5v-5z"/>
  <path d="m436 868c-1-1.4-1.3-3-1-5h6v6c-2 0.3-3.6 0-5-1z"/>
  <path d="m436 868v-4h4v4h-4z"/>
  <path d="m124 868v5h-5v-5h5z"/>
  <path d="m250 868h5v6h-5v-6z"/>
  <path d="m212 868h6v11h-6v-11z"/>
  <path d="m214 868h4v9h-4v-9z"/>
  <path d="m124 868c1 1.8 1.3 3.8 1 6-2.2 0.3-4.2 0-6-1h5v-5z"/>
  <path d="m154 868h6v6h-6v-6z"/>
  <path d="m156 868h4v4h-4v-4z"/>
  <path d="m182 874c1-1 2.4-1.3 4-1v-5h7v6h-6v5h-6c-0.3-2 0-3.6 1-5z"/>
  <path d="m186 868h5v4h-5v-4z"/>
  <path d="m352 868h6v6h-6v-6z"/>
  <path d="m354 868h4v4h-4v-4z"/>
  <path d="m166 872h5v6h-5v-6z"/>
  <path d="m182 874h4v4h-4v-4z"/>
  <path d="m202 878h-5v-6h5v6z"/>
  <path d="m228 872h5v6h-5v-6z"/>
  <path d="m130 874c1.4-1 3-1.3 5-1v6h-6c-0.3-2 0-3.6 1-5z"/>
  <path d="m130 874h4v4h-4v-4z"/>
  <path d="m322 874c1 1.4 1.3 3 1 5h-6v-6c2-0.3 3.6 0 5 1z"/>
  <path d="m322 874v4h-4v-4h4z"/>
  <path d="m140 878h5v5h-5v-5z"/>
  <path d="m202 878h5v10h-5v-10z"/>
  <path d="m290 878h6v5h-6v-5z"/>
  <path d="m420 878h5v5h-5v-5z"/>
  <path d="m462 878h6v5h-6v-5z"/>
  <path d="m488 878h6v5h-6v-5z"/>
  <path d="m540 878h6v5h-6v-5z"/>
  <path d="m566 878h6v5h-6v-5z"/>
  <path d="m602 878h6v5h-6v-5z"/>
  <path d="m150 884h6v5h-6v-5z"/>
  <path d="m170 884h5v5h-5v-5z"/>
  <path d="m186 884h6v5h-6v-5z"/>
  <path d="m218 884h5v5h-5v-5z"/>
  <path d="m270 884h6v5h-6v-5z"/>
  <path d="m342 884h5v5h-5v-5z"/>
  <path d="m384 884h5v5h-5v-5z"/>
  <path d="m452 884h5v5h-5v-5z"/>
  <path d="m128 888h6v5h-6v-5z"/>
  <path d="m160 888h5v5h-5v-5zm68 5v-5h5v5h-5zm26-5h5v5h-5v-5z"/>
  <path d="m306 888h5v5h-5v-5z"/>
  <path d="m374 888h6v5h-6v-5z"/>
  <path d="m520 888h5v5h-5v-5z"/>
  <path d="m212 894v5h-5v-5h5z"/>
  <path d="m228 894v6h-5v-6h5z"/>
  <path d="m150 898c-1.4 1-3 1.3-5 1v-6h6c0.3 2 0 3.6-1 5z"/>
  <path d="m150 898h-4v-4h4v4z"/>
  <path d="m180 898c-1.4 1-3 1.3-5 1v-6h6c0.3 2 0 3.6-1 5z"/>
  <path d="m180 898h-4v-4h4v4z"/>
  <path d="m192 898c-1-1.4-1.3-3-1-5h6v6c-2 0.3-3.6 0-5-1z"/>
  <path d="m192 898v-4h4v4h-4z"/>
  <path d="m328 898c-1-1.4-1.3-3-1-5h6v6c-2 0.3-3.6 0-5-1z"/>
  <path d="m328 898v-4h4v4h-4z"/>
  <path d="m410 898c-1-1.4-1.3-3-1-5h6v6c-2 0.3-3.6 0-5-1z"/>
  <path d="m410 898v-4h4v4h-4z"/>
  <path d="m436 898c-1-1.4-1.3-3-1-5h6v6c-2 0.3-3.6 0-5-1z"/>
  <path d="m436 898v-4h4v4h-4z"/>
  <path d="m212 894c1 1.4 1.3 3 1 5h5v6h-6v-5c-2 0.3-3.6 0-5-1h5v-5z"/>
  <path d="m166 898h5v6h-5v-6z"/>
  <path d="m214 900h4v4h-4v-4z"/>
  <path d="m238 900c1 1.4 1.3 3 1 5h-6v-6c2-0.3 3.6 0 5 1z"/>
  <path d="m238 900v4h-4v-4h4z"/>
  <path d="m296 900c1.4-1 3-1.3 5-1v6h-6c-0.3-2 0-3.6 1-5z"/>
  <path d="m296 900h4v4h-4v-4z"/>
  <path d="m140 904h5v5h-5v-5z"/>
  <path d="m198 904h10v5h-10v-5z"/>
  <path d="m224 904h5v10h-5v-10z"/>
  <path d="m286 904h5v5h-5v-5z"/>
  <path d="m352 904h6v5h-6v-5z"/>
  <path d="m504 904h5v5h-5v-5z"/>
  <path d="m182 904c1.4-1 3-1.3 5-1v6h-6c-0.3-2 0-3.6 1-5z"/>
  <path d="m182 904h4v4h-4v-4z"/>
  <path d="m154 910h6v5h-6v-5z"/>
  <path d="m170 910h5v5h-5v-5z"/>
  <path d="m342 910h5v5h-5v-5z"/>
  <path d="m494 910h5v5h-5v-5z"/>
  <path d="m550 910h5v5h-5v-5z"/>
  <path d="m186 914h6v5h-6v-5z"/>
  <path d="m208 914h5v5h-5v-5z"/>
  <path d="m250 914h5v5h-5v-5z"/>
  <path d="m276 914h5v5h-5v-5z"/>
  <path d="m332 914h5v5h-5v-5z"/>
  <path d="m404 914h6v5h-6v-5z"/>
  <path d="m462 914v5h-5v-5h5z"/>
  <path d="m462 914c1 1.8 1.3 3.8 1 6-2.2 0.3-4.2 0-6-1h5v-5z"/>
  <path d="m160 920h5v6h-5v-6z"/>
  <path d="m198 920h5v6h-5v-6z"/>
  <path d="m180 924c-1.4 1-3 1.3-5 1v-6h6c0.3 2 0 3.6-1 5z"/>
  <path d="m180 924h-4v-4h4v4z"/>
  <path d="m380 924c-1-1.4-1.3-3-1-5h6v6c-2 0.3-3.6 0-5-1z"/>
  <path d="m380 924v-4h4v4h-4z"/>
  <path d="m228 926h-5c-2 0.3-3.6 0-5-1-1-1.4-1.3-3-1-5h6v5c2-0.3 3.6 0 5 1z"/>
  <path d="m218 924v-4h4v4h-4z"/>
  <path d="m224 926h5v5h-5v-5z"/>
  <path d="m430 924h6v6h-6v-6z"/>
  <path d="m432 926h4v4h-4v-4z"/>
  <path d="m166 930h5v5h-5v-5z"/>
  <path d="m202 930h5v5h-5v-5z"/>
  <path d="m218 936v-5h-4v5a9.6 9.6 0 0 1-1-6h6c0.3 2.2 0 4.2-1 6z"/>
  <path d="m218 936h-4v-5h4v5z"/>
  <path d="m326 936v-5h-4v5a9.6 9.6 0 0 1-1-6h6c0.3 2.2 0 4.2-1 6z"/>
  <path d="m326 936h-4v-5h4v5z"/>
  <path d="m182 930c1.4-1 3-1.3 5-1v6h-6c-0.3-2 0-3.6 1-5z"/>
  <path d="m182 930h4v4h-4v-4z"/>
  <path d="m270 930c1 1.4 1.3 3 1 5h-6v-6c2-0.3 3.6 0 5 1z"/>
  <path d="m270 930v4h-4v-4h4z"/>
  <path d="m192 936h5v5h-5v-5z"/>
  <path d="m238 936h6v5h-6v-5z"/>
  <path d="m306 936h5v5h-5v-5z"/>
  <path d="m208 940h5v5h-5v-5z"/>
  <path d="m224 940h5v11h-5v-11z"/>
  <path d="m290 940h6v5h-6v-5z"/>
  <path d="m352 940h6v5h-6v-5z"/>
  <path d="m198 946h5v6h-5v-6zm83 0h5v6h-5v-6z"/>
  <path d="m186 952v-5h-4v5a9.6 9.6 0 0 1-1-6h6c0.3 2.2 0 4.2-1 6z"/>
  <path d="m186 952h-4v-5h4v5z"/>
  <path d="m270 952h6v5h-6v-5z"/>
  <path d="m352 952v5h-5v-5h5z"/>
  <path d="m478 952h5v5h-5v-5z"/>
  <path d="m186 962c-1-1.4-1.3-3-1-5h7v6c-2.2 0.3-4.2 0-6-1z"/>
  <path d="m214 952v5h4v-5c1 1.8 1.3 3.8 1 6h-6c-0.3-2.2 0-4.2 1-6z"/>
  <path d="m214 952h4v5h-4v-5z"/>
  <path d="m352 952c1 1.8 1.3 3.8 1 6-2.2 0.3-4.2 0-6-1h5v-5z"/>
  <path d="m186 962v-4h5v4h-5z"/>
  <path d="m202 956h5v6h-5v-6z"/>
  <path d="m430 962c-1.4 1-3 1.3-5 1v-6h6c0.3 2 0 3.6-1 5z"/>
  <path d="m430 962h-4v-4h4v4z"/>
  <path d="m228 966h-10v-4c3.1-1 6.5-1.3 10-1v5z"/>
  <path d="m198 968h5v5h-5v-5z"/>
  <path d="m244 968h6v5h-6v-5z"/>
  <path d="m218 962v4h10c-3.1 1-6.5 1.3-10 1 0.3 2 0 3.6-1 5v-5h-4v5a9.6 9.6 0 0 1-1-6h5c-0.3-1.6 0-3 1-4z"/>
  <path d="m218 972h-4v-5h4v5z"/>
  <path d="m234 972h5v5h-5v-5z"/>
  <path d="m316 972h5v5h-5v-5z"/>
  <path d="m202 978h5v5h-5v-5z"/>
  <path d="m218 978h5v5h-5v-5z"/>
  <path d="m228 982h5v6h-5v-6z"/>
  <path d="m224 1030h5v5h-5v-5z"/>
 </g>
</svg>
